<svg width="151" height="147" viewBox="0 0 151 147" fill="none" xmlns="http://www.w3.org/2000/svg">
<path d="M126.692 61.9805C126.692 75.0321 122.308 87.0442 115.038 96.7463C111 101.944 106.154 106.564 100.615 110.144C91.6154 116.035 80.8846 119.5 69.3461 119.5C37.6154 119.5 12 93.7433 12 62.096C12 30.3332 37.7308 4.69189 69.3461 4.69189C80.8846 4.69189 91.6154 8.15693 100.615 13.932C106.154 17.5125 111 22.1326 115.038 27.3301C122.423 36.9167 126.692 48.9288 126.692 61.9805Z" fill="#EAEEF9"/>
<path d="M111.605 9.52539H107.894V11.9569H111.605V9.52539Z" fill="#B3BFCF"/>
<path d="M111.605 9.52539H107.894V10.5791H111.605V9.52539Z" fill="#9FADBF"/>
<path d="M97.4055 14.4692L95.3885 16.4955L96.8408 17.9545L98.8577 15.9282L97.4055 14.4692Z" fill="#B3BFCF"/>
<path d="M121.125 15.7661L123.142 17.7924L124.433 16.4955L122.416 14.4692L121.125 15.7661Z" fill="#B3BFCF"/>
<g filter="url(#filter0_d_79184_5353)">
<path d="M109.991 47.7004C119.915 47.7004 127.983 39.5952 127.983 29.6258C127.983 19.6564 119.915 11.5513 109.991 11.5513C100.068 11.5513 92 19.6564 92 29.6258C92 39.5952 100.068 47.7004 109.991 47.7004Z" fill="#F0F3F9"/>
<path d="M109.991 47.7004C119.915 47.7004 127.983 39.5952 127.983 29.6258C127.983 19.6564 119.915 11.5513 109.991 11.5513C100.068 11.5513 92 19.6564 92 29.6258C92 39.5952 100.068 47.7004 109.991 47.7004Z" stroke="#CDD5E4" stroke-width="0.5522" stroke-miterlimit="10"/>
</g>
<path d="M124.029 29.626C124.029 29.7881 124.029 29.9502 124.029 30.1123C123.787 37.6501 117.575 43.729 109.991 43.729C102.407 43.729 96.1952 37.6501 95.9531 30.1123C95.9531 29.9502 95.9531 29.7881 95.9531 29.626C95.9531 22.0071 101.923 15.7661 109.507 15.5229C109.668 15.5229 109.83 15.5229 109.991 15.5229C117.656 15.5229 123.868 21.6829 124.029 29.3828C124.029 29.4639 124.029 29.5449 124.029 29.626Z" fill="#EDF0FC"/>
<path d="M124.029 30.1123C123.787 37.6501 117.575 43.729 109.991 43.729C102.407 43.729 96.1952 37.6501 95.9531 30.1123C96.1952 22.5745 102.407 16.4956 109.991 16.4956C117.656 16.4956 123.787 22.4934 124.029 30.1123Z" fill="white"/>
<path d="M113.783 38.6228H105.715C105.312 38.6228 104.989 38.2986 104.989 37.8934V33.8408C104.989 33.4355 105.312 33.1113 105.715 33.1113H113.783C114.187 33.1113 114.509 33.4355 114.509 33.8408V37.8934C114.429 38.2986 114.106 38.6228 113.783 38.6228Z" fill="#F2F5FC"/>
<path d="M122.174 30.3554H119.834C119.431 30.3554 119.108 30.0312 119.108 29.626C119.108 29.2207 119.431 28.8965 119.834 28.8965H122.174C122.577 28.8965 122.9 29.2207 122.9 29.626C122.9 30.0312 122.497 30.3554 122.174 30.3554Z" fill="#DAE1ED"/>
<path d="M99.4222 30.3554H97.0826C96.6792 30.3554 96.3564 30.0312 96.3564 29.626C96.3564 29.2207 96.6792 28.8965 97.0826 28.8965H99.4222C99.8256 28.8965 100.148 29.2207 100.148 29.626C100.148 30.0312 99.8256 30.3554 99.4222 30.3554Z" fill="#DAE1ED"/>
<path d="M109.669 42.9183C109.265 42.9183 108.943 42.5941 108.943 42.1889V39.8384C108.943 39.4331 109.265 39.1089 109.669 39.1089C110.072 39.1089 110.395 39.4331 110.395 39.8384V42.1889C110.314 42.6752 109.991 42.9183 109.669 42.9183Z" fill="#DAE1ED"/>
<path d="M109.669 20.1429C109.265 20.1429 108.943 19.8187 108.943 19.4135V17.144C108.943 16.7388 109.265 16.4146 109.669 16.4146C110.072 16.4146 110.395 16.7388 110.395 17.144V19.4945C110.314 19.8187 109.991 20.1429 109.669 20.1429Z" fill="#DAE1ED"/>
<path d="M109.83 31.5711C111.04 31.5711 111.928 30.5985 111.928 29.4638C111.928 28.248 110.959 27.3564 109.83 27.3564C108.62 27.3564 107.732 28.3291 107.732 29.4638C107.732 30.5985 108.62 31.5711 109.83 31.5711Z" fill="#F2F5FC"/>
<path d="M118.866 20.9534C118.624 20.7102 118.221 20.7102 117.979 20.9534L110.475 28.8964C110.395 28.8964 110.395 28.8964 110.395 28.8964C109.83 28.8964 109.427 29.3017 109.427 29.8691C109.427 29.9501 109.427 29.9501 109.427 30.0312L108.216 31.328C107.974 31.5711 107.974 31.9764 108.216 32.2196C108.378 32.3817 108.458 32.3817 108.62 32.3817C108.781 32.3817 108.943 32.3006 109.023 32.2196L110.233 30.9227C110.314 30.9227 110.314 30.9227 110.314 30.9227C110.879 30.9227 111.282 30.5175 111.282 29.9501C111.282 29.8691 111.282 29.8691 111.282 29.788L118.785 21.926C119.108 21.6018 119.108 21.1965 118.866 20.9534Z" fill="#DAE1ED"/>
<path d="M118.301 20.467C118.059 20.2239 117.656 20.2239 117.414 20.467L109.911 28.4101C109.83 28.4101 109.83 28.4101 109.83 28.4101C109.265 28.4101 108.862 28.8154 108.862 29.3827C108.862 29.4638 108.862 29.4638 108.862 29.5448L107.652 30.8417C107.41 31.0848 107.41 31.4901 107.652 31.7332C107.813 31.8953 107.894 31.8953 108.055 31.8953C108.216 31.8953 108.378 31.8143 108.459 31.7332L109.669 30.4364C109.749 30.4364 109.749 30.4364 109.749 30.4364C110.314 30.4364 110.718 30.0311 110.718 29.4638C110.718 29.3827 110.718 29.3827 110.718 29.3017L118.221 21.4397C118.543 21.1154 118.543 20.7102 118.301 20.467Z" fill="#633185"/>
<path d="M118.059 20.7105L107.813 31.4093C107.732 31.4093 107.732 31.4093 107.652 31.4093C107.571 31.2472 107.571 31.0851 107.732 31.004L117.575 20.6294C117.736 20.4673 117.898 20.4673 118.059 20.5484C118.059 20.5484 118.059 20.6294 118.059 20.7105Z" fill="#763F98"/>
<path d="M113.38 6.12104V8.47154C113.38 9.36311 112.654 10.0926 111.766 10.0926H107.732C106.845 10.0926 106.119 9.36311 106.119 8.47154V6.12104C106.119 5.22947 106.845 4.5 107.732 4.5H111.766C112.654 4.5 113.38 5.22947 113.38 6.12104Z" fill="#212121"/>
<path d="M113.38 6.12104V8.47154C113.38 9.36311 112.654 10.0926 111.766 10.0926H107.732C106.845 10.0926 106.119 9.36311 106.119 8.47154V8.06628C106.361 9.201 107.41 9.201 107.41 9.201H111.524C112.089 9.201 112.573 8.71469 112.573 8.14733V6.44524C112.573 5.22947 112.331 4.82421 111.766 4.5C112.654 4.5 113.38 5.22947 113.38 6.12104Z" fill="#172D45"/>
<path d="M97.8089 14.6312L95.6306 16.8196C95.1466 17.3059 94.3398 17.3059 93.8557 16.8196L92.5648 15.5228C92.0808 15.0365 92.0808 14.226 92.5648 13.7397L94.7432 11.5513C95.2272 11.0649 96.034 11.0649 96.5181 11.5513L97.8089 12.8481C98.293 13.3344 98.293 14.1449 97.8089 14.6312Z" fill="#212121"/>
<path d="M122.012 14.6312L124.191 16.8196C124.675 17.3059 125.481 17.3059 125.966 16.8196L127.256 15.5228C127.74 15.0365 127.74 14.226 127.256 13.7397L125.078 11.5513C124.594 11.0649 123.787 11.0649 123.303 11.5513L122.012 12.8481C121.609 13.3344 121.609 14.1449 122.012 14.6312Z" fill="#212121"/>
<path d="M109.83 29.6245C109.911 29.6245 109.991 29.5438 109.991 29.4631C109.991 29.3824 109.911 29.3018 109.83 29.3018C109.749 29.3018 109.669 29.3824 109.669 29.4631C109.669 29.5438 109.749 29.6245 109.83 29.6245Z" fill="#212121"/>
<path opacity="0.4" d="M124.029 29.3828H109.507V15.5229C109.669 15.5229 109.83 15.5229 109.991 15.5229C117.737 15.5229 123.949 21.7639 124.029 29.3828Z" fill="url(#paint0_linear_79184_5353)"/>
<path d="M17.1924 25.3665C18.2757 25.3665 19.1539 24.4874 19.1539 23.403C19.1539 22.3186 18.2757 21.4395 17.1924 21.4395C16.109 21.4395 15.2308 22.3186 15.2308 23.403C15.2308 24.4874 16.109 25.3665 17.1924 25.3665Z" fill="url(#paint1_linear_79184_5353)"/>
<path d="M112.846 119.196C113.866 119.196 114.692 118.369 114.692 117.348C114.692 116.327 113.866 115.5 112.846 115.5C111.827 115.5 111 116.327 111 117.348C111 118.369 111.827 119.196 112.846 119.196Z" fill="url(#paint2_linear_79184_5353)"/>
<path d="M101.769 74.0259L89.077 104.749C88.7308 105.442 88.6154 106.251 88.6154 107.059L88.5001 109.6H38.5385C36.8078 109.6 35.4232 108.099 35.5385 106.366L37.1539 89.965C37.5001 86.3845 34.9616 83.1505 31.3847 82.6884L22.1539 81.5334L24.4616 66.5183C26.7693 51.5031 33.577 51.0411 38.077 48.8466C40.2693 47.8071 42.8078 46.7676 45.0001 45.8436C46.1539 45.3816 47.3078 45.0351 48.0001 44.6886C48.8078 44.3421 49.7308 44.2266 50.6539 44.2266C52.2693 44.3421 55.0385 44.5731 59.1924 45.4971C61.7308 46.0746 64.8462 46.6521 67.8462 47.2296C68.5385 47.3451 69.3462 47.4606 70.0385 47.6916C75.3462 48.7311 80.3078 51.0411 84.4616 54.3907L99.6924 66.6338C102.115 68.1353 102.923 71.2538 101.769 74.0259Z" fill="#26AFAB"/>
<path d="M65.8846 39.2601V46.6522C65.8846 51.6188 61.7307 55.6613 56.5384 55.6613C53.9999 55.6613 51.5769 54.6218 49.9615 53.0048C48.2307 51.3878 47.1923 49.0777 47.1923 46.6522V24.938L65.8846 39.2601Z" fill="white"/>
<path d="M65.8846 39.2602V46.4213C55.1539 45.3818 51.577 34.7557 53.077 36.0262C54.3462 37.2967 61.1539 38.5672 65.8846 39.2602Z" fill="url(#paint3_linear_79184_5353)"/>
<path d="M72.3461 13.5031C72.4615 24.9377 73.9615 36.2568 71.3077 38.3359C68.6538 40.4149 62.7692 42.3784 56.8846 38.9134C51 35.4483 50.3077 33.2538 50.3077 33.2538L47.0769 30.0198L47.5384 16.7372L56.8846 10.0381L72.3461 13.5031Z" fill="white"/>
<path d="M72.3462 13.5034C72.3462 13.5034 73.5001 16.9684 68.5385 16.8529C63.577 16.7374 57.577 15.1204 55.0385 14.6584C52.5001 14.0809 50.8847 16.9684 50.8847 16.9684V21.3575L50.3078 28.172C50.3078 28.172 45.8078 26.093 45.6924 23.4365C45.577 20.78 45.6924 19.9715 45.6924 19.9715L51.2309 14.8894C51.2309 14.8894 58.3847 12.2329 58.7309 11.8864C59.077 11.6554 66.4616 9.92285 66.4616 9.92285C66.4616 9.92285 71.5385 10.1539 72.0001 10.8469C72.2308 11.1934 72.3462 12.0019 72.4616 12.5794C72.3462 13.1569 72.3462 13.5034 72.3462 13.5034Z" fill="#212121"/>
<path d="M48.1343 30.6948C49.9093 30.5121 51.1844 28.7693 50.9823 26.8021C50.7802 24.8349 49.1775 23.3883 47.4024 23.571C45.6274 23.7537 44.3523 25.4966 44.5544 27.4638C44.7565 29.431 46.3593 30.8776 48.1343 30.6948Z" fill="white"/>
<path d="M72.5769 15.2359C72.4615 15.2359 72.4615 15.2359 72.3462 15.3514C70.1539 12.4638 66.5769 10.8468 59.8846 13.2723H59.7692C59.5385 13.3878 59.1923 13.5033 58.8462 13.6188C58.5 13.7344 58.1539 13.8499 57.8077 14.0809C56.1923 14.7739 53.6539 16.1599 51.3462 17.7769C48.4616 19.7404 45.9231 22.2814 45.8077 24.3605C45.1154 21.5884 44.7693 18.8164 44.6539 16.0444C44.5385 10.8468 51 5.41827 57.4616 4.60976C60.9231 4.14776 63.6923 5.18727 66.1154 6.91978C68.1923 8.4213 70.0385 10.6158 71.6539 12.8103L72.5769 15.2359Z" fill="url(#paint4_linear_79184_5353)"/>
<path d="M80.3077 8.88261C79.7308 11.7701 75.2308 14.0802 72.3462 15.2352C67.2693 8.65161 57.2308 13.6182 51.3462 17.7762C51.4616 17.6607 51.577 16.9677 51.6923 16.8522C55.2693 8.07411 81.9231 0.335528 80.3077 8.88261Z" fill="#00A19C"/>
<path d="M69.0001 25.0533C69.7648 25.0533 70.3847 24.4327 70.3847 23.6673C70.3847 22.9018 69.7648 22.2812 69.0001 22.2812C68.2354 22.2812 67.6155 22.9018 67.6155 23.6673C67.6155 24.4327 68.2354 25.0533 69.0001 25.0533Z" fill="#212121"/>
<path d="M59.1924 25.0533C59.9571 25.0533 60.577 24.4327 60.577 23.6673C60.577 22.9018 59.9571 22.2812 59.1924 22.2812C58.4276 22.2812 57.8077 22.9018 57.8077 23.6673C57.8077 24.4327 58.4276 25.0533 59.1924 25.0533Z" fill="#212121"/>
<path d="M108.231 59.5876H105.462C105.115 59.5876 105 59.4722 105 59.1261C105 58.7799 105.115 58.6646 105.462 58.6646H108.231C108.577 58.6646 108.692 58.7799 108.692 59.1261C108.692 59.3569 108.577 59.5876 108.231 59.5876Z" fill="url(#paint5_linear_79184_5353)"/>
<path d="M132 57.5092V108.792C132 109.485 131.885 110.062 131.538 110.524C131.423 110.64 131.308 110.986 131.077 111.102C130.962 111.217 130.962 111.217 130.846 111.333C130.154 112.026 129.346 112.372 128.308 112.372H112.846L109.846 54.1597H128.654C130.5 54.1597 132 55.5457 132 57.5092Z" fill="url(#paint6_linear_79184_5353)"/>
<g filter="url(#filter1_d_79184_5353)">
<path d="M132 57.5092V108.792C132 109.485 131.885 110.062 131.538 110.524C131.423 110.64 131.308 110.986 131.077 111.102C130.962 111.217 130.962 111.217 130.846 111.333C130.154 112.026 129.346 112.372 128.308 112.372H112.846L109.846 54.1597H128.654C130.5 54.1597 132 55.5457 132 57.5092Z" fill="url(#paint7_linear_79184_5353)"/>
</g>
<g filter="url(#filter2_d_79184_5353)">
<path d="M112.962 57.1627V112.257H62.3077C60.3462 112.257 58.8462 110.755 58.8462 108.792V57.5092C58.8462 55.6612 60.3462 54.1597 62.3077 54.1597H109.846C111.577 54.1597 112.962 55.5457 112.962 57.1627Z" fill="url(#paint8_linear_79184_5353)"/>
</g>
<path d="M91.5 54.1597V69.5213C91.5 69.9833 91.2693 70.2143 90.9231 70.4453L88.8462 71.3693C88.6154 71.4848 88.2693 71.4848 88.0385 71.2538L84.8077 68.7128C84.577 68.5973 84.2308 68.4818 84 68.5973L82.2693 69.5213C81.8077 69.7523 81.3462 69.4058 81.3462 69.0593V54.1597H91.5Z" fill="#26AFAB"/>
<path d="M109.846 54.1599C111.115 53.9289 112.615 54.7374 113.077 56.008C113.192 56.3545 113.308 56.701 113.308 57.0475C113.308 57.394 113.308 57.7405 113.308 57.9715V59.8195V67.3271L113.192 82.3422L113.077 97.3574L112.846 112.373L112.731 97.3574L112.615 82.3422L112.5 67.3271V59.8195V57.9715C112.5 57.2785 112.615 56.701 112.385 56.239C112.038 55.1994 111 54.3909 109.846 54.1599Z" fill="#4DBDBA"/>
<path d="M112.846 102.67V109.369C112.846 109.831 112.385 110.64 111.923 111.448C111.462 111.91 110.769 112.141 110.077 112.141H102.346L96.8079 105.789L98.5386 103.941L93.8079 98.6277L100.039 99.0897L105.116 96.7797L102 94.1231L102.346 92.3906L112.846 102.67Z" fill="url(#paint9_linear_79184_5353)"/>
<path d="M93.9231 96.8955C93.8078 97.1265 93.6924 97.473 93.6924 97.704C93.6924 98.397 94.2693 98.9745 94.9616 98.9745H96.9232V105.327C96.9232 105.558 97.0385 105.789 97.3847 105.789H102.115H102.923C103.154 105.789 103.385 105.674 103.385 105.327V98.9745H105.115C105.346 98.9745 105.692 98.859 105.923 98.7435C106.5 98.2815 106.615 97.473 106.154 96.8955L101.077 90.5429C100.962 90.4274 100.962 90.3119 100.846 90.3119C100.269 89.8499 99.4616 90.0809 99.0001 90.5429L93.9231 96.8955Z" fill="url(#paint10_linear_79184_5353)"/>
<path d="M36.9232 92.9682L39.0001 72.2935L41.1924 94.4697" fill="#112133"/>
<g filter="url(#filter3_d_79184_5353)">
<path d="M83.077 98.9742C83.1924 99.7827 82.5 100.476 81.8077 100.591L80.5385 100.707C80.5385 100.707 76.1539 100.014 75.9231 103.132C75.6924 105.673 76.9616 106.597 80.4231 110.871C81.2308 111.91 80.5385 113.412 79.2693 113.527C70.6154 114.22 70.2693 114.22 63.4616 107.521C62.5385 106.597 61.2693 106.02 60.0001 106.02L42.3462 105.904L26.6539 105.673C24.0001 104.403 22.3847 101.746 22.6155 98.7431L23.5385 81.418L37.9616 83.266L37.1539 91.2356L61.7308 96.2021C61.7308 96.2021 67.9616 97.4726 72.9231 97.2416C76.6154 97.1261 79.7308 97.3571 81.8077 97.4726C82.3847 97.7036 82.9616 98.2811 83.077 98.9742Z" fill="white"/>
</g>
<defs>
<filter id="filter0_d_79184_5353" x="69.7239" y="0.275391" width="80.5349" height="80.7012" filterUnits="userSpaceOnUse" color-interpolation-filters="sRGB">
<feFlood flood-opacity="0" result="BackgroundImageFix"/>
<feColorMatrix in="SourceAlpha" type="matrix" values="0 0 0 0 0 0 0 0 0 0 0 0 0 0 0 0 0 0 127 0" result="hardAlpha"/>
<feOffset dy="11"/>
<feGaussianBlur stdDeviation="11"/>
<feColorMatrix type="matrix" values="0 0 0 0 0.397708 0 0 0 0 0.47749 0 0 0 0 0.575 0 0 0 0.18 0"/>
<feBlend mode="normal" in2="BackgroundImageFix" result="effect1_dropShadow_79184_5353"/>
<feBlend mode="normal" in="SourceGraphic" in2="effect1_dropShadow_79184_5353" result="shape"/>
</filter>
<filter id="filter1_d_79184_5353" x="101.846" y="51.1597" width="38.1538" height="74.2124" filterUnits="userSpaceOnUse" color-interpolation-filters="sRGB">
<feFlood flood-opacity="0" result="BackgroundImageFix"/>
<feColorMatrix in="SourceAlpha" type="matrix" values="0 0 0 0 0 0 0 0 0 0 0 0 0 0 0 0 0 0 127 0" result="hardAlpha"/>
<feOffset dy="5"/>
<feGaussianBlur stdDeviation="4"/>
<feColorMatrix type="matrix" values="0 0 0 0 0 0 0 0 0 0.631373 0 0 0 0 0.611765 0 0 0 0.22 0"/>
<feBlend mode="normal" in2="BackgroundImageFix" result="effect1_dropShadow_79184_5353"/>
<feBlend mode="normal" in="SourceGraphic" in2="effect1_dropShadow_79184_5353" result="shape"/>
</filter>
<filter id="filter2_d_79184_5353" x="50.8462" y="51.1597" width="70.1154" height="74.0972" filterUnits="userSpaceOnUse" color-interpolation-filters="sRGB">
<feFlood flood-opacity="0" result="BackgroundImageFix"/>
<feColorMatrix in="SourceAlpha" type="matrix" values="0 0 0 0 0 0 0 0 0 0 0 0 0 0 0 0 0 0 127 0" result="hardAlpha"/>
<feOffset dy="5"/>
<feGaussianBlur stdDeviation="4"/>
<feColorMatrix type="matrix" values="0 0 0 0 0 0 0 0 0 0.631373 0 0 0 0 0.611765 0 0 0 0.22 0"/>
<feBlend mode="normal" in2="BackgroundImageFix" result="effect1_dropShadow_79184_5353"/>
<feBlend mode="normal" in="SourceGraphic" in2="effect1_dropShadow_79184_5353" result="shape"/>
</filter>
<filter id="filter3_d_79184_5353" x="0.593628" y="70.418" width="104.496" height="76.4058" filterUnits="userSpaceOnUse" color-interpolation-filters="sRGB">
<feFlood flood-opacity="0" result="BackgroundImageFix"/>
<feColorMatrix in="SourceAlpha" type="matrix" values="0 0 0 0 0 0 0 0 0 0 0 0 0 0 0 0 0 0 127 0" result="hardAlpha"/>
<feOffset dy="11"/>
<feGaussianBlur stdDeviation="11"/>
<feColorMatrix type="matrix" values="0 0 0 0 0.397708 0 0 0 0 0.47749 0 0 0 0 0.575 0 0 0 0.18 0"/>
<feBlend mode="normal" in2="BackgroundImageFix" result="effect1_dropShadow_79184_5353"/>
<feBlend mode="normal" in="SourceGraphic" in2="effect1_dropShadow_79184_5353" result="shape"/>
</filter>
<linearGradient id="paint0_linear_79184_5353" x1="108.532" y1="18.309" x2="121.561" y2="31.2854" gradientUnits="userSpaceOnUse">
<stop stop-color="#763F98"/>
<stop offset="1" stop-color="#EFE8F3"/>
</linearGradient>
<linearGradient id="paint1_linear_79184_5353" x1="15.2308" y1="23.4291" x2="19.0448" y2="23.4291" gradientUnits="userSpaceOnUse">
<stop stop-color="#80D0CE"/>
<stop offset="1" stop-color="#26AFAB"/>
</linearGradient>
<linearGradient id="paint2_linear_79184_5353" x1="111.033" y1="117.309" x2="114.615" y2="117.309" gradientUnits="userSpaceOnUse">
<stop stop-color="#9F79B7"/>
<stop offset="1" stop-color="#763F98"/>
</linearGradient>
<linearGradient id="paint3_linear_79184_5353" x1="57.9965" y1="44.0742" x2="59.7229" y2="40.5742" gradientUnits="userSpaceOnUse">
<stop stop-color="#E3E7F5"/>
<stop offset="0.9913" stop-color="#CED5E6"/>
</linearGradient>
<linearGradient id="paint4_linear_79184_5353" x1="44.652" y1="14.4451" x2="72.5288" y2="14.4451" gradientUnits="userSpaceOnUse">
<stop stop-color="#4DBDBA"/>
<stop offset="1" stop-color="#4DBDBA"/>
<stop offset="1" stop-color="#26AFAB"/>
</linearGradient>
<linearGradient id="paint5_linear_79184_5353" x1="105.054" y1="59.0537" x2="108.72" y2="59.0537" gradientUnits="userSpaceOnUse">
<stop stop-color="#4DBDBA"/>
<stop offset="1" stop-color="#00A19C"/>
</linearGradient>
<linearGradient id="paint6_linear_79184_5353" x1="95.1387" y1="84.1937" x2="121.535" y2="83.1254" gradientUnits="userSpaceOnUse">
<stop stop-color="#4DBDBA"/>
<stop offset="1" stop-color="#80D0CE"/>
</linearGradient>
<linearGradient id="paint7_linear_79184_5353" x1="144.249" y1="103.546" x2="124.272" y2="85.8075" gradientUnits="userSpaceOnUse">
<stop stop-color="#80D0CE"/>
<stop offset="1" stop-color="#26AFAB"/>
</linearGradient>
<linearGradient id="paint8_linear_79184_5353" x1="58.7863" y1="83.1776" x2="112.865" y2="83.1776" gradientUnits="userSpaceOnUse">
<stop stop-color="#80D0CE"/>
<stop offset="1" stop-color="#26AFAB"/>
</linearGradient>
<linearGradient id="paint9_linear_79184_5353" x1="98.0597" y1="97.8796" x2="111.169" y2="111.01" gradientUnits="userSpaceOnUse">
<stop stop-color="#008F8A"/>
<stop offset="1" stop-color="#4DBDBA"/>
</linearGradient>
<linearGradient id="paint10_linear_79184_5353" x1="104.244" y1="103.475" x2="96.8043" y2="96.0243" gradientUnits="userSpaceOnUse">
<stop offset="0.0113208" stop-color="#B3E3E1"/>
<stop offset="1" stop-color="white"/>
</linearGradient>
</defs>
</svg>
