<svg width="16" height="16" viewBox="0 0 16 16" fill="none" xmlns="http://www.w3.org/2000/svg">
<path d="M12.9999 4.5217H11.4523L10.238 2.94489C10.1715 2.85849 10.0852 2.78837 9.98602 2.74007C9.88684 2.69177 9.77748 2.66663 9.66659 2.66663H6.33325C6.22236 2.66663 6.113 2.69177 6.01381 2.74007C5.91463 2.78837 5.82836 2.85849 5.76182 2.94489L4.54754 4.5217H2.99992C2.55805 4.52219 2.13442 4.69336 1.82196 4.99766C1.50951 5.30196 1.33376 5.71454 1.33325 6.14489L1.33325 11.7101C1.33376 12.1405 1.50951 12.553 1.82196 12.8573C2.13442 13.1616 2.55805 13.3328 2.99992 13.3333H12.9999C13.4418 13.3328 13.8654 13.1616 14.1779 12.8573C14.4903 12.553 14.6661 12.1405 14.6666 11.7101V6.14489C14.6661 5.71454 14.4903 5.30196 14.1779 4.99766C13.8654 4.69336 13.4418 4.52219 12.9999 4.5217V4.5217ZM7.99992 11.7101C7.38774 11.7101 6.78931 11.5333 6.2803 11.2021C5.77129 10.8708 5.37456 10.4 5.14029 9.84921C4.90602 9.29838 4.84472 8.69227 4.96415 8.10751C5.08359 7.52276 5.37838 6.98563 5.81125 6.56404C6.24413 6.14246 6.79565 5.85536 7.39607 5.73904C7.99649 5.62273 8.61883 5.68242 9.18442 5.91058C9.75 6.13874 10.2334 6.52512 10.5735 7.02085C10.9136 7.51658 11.0952 8.0994 11.0952 8.69561C11.0941 9.4948 10.7677 10.261 10.1875 10.8261C9.60722 11.3912 8.82052 11.7091 7.99992 11.7101V11.7101Z" fill="black"/>
<path d="M6.33325 8.69558C6.33325 9.12607 6.50885 9.53894 6.82141 9.84334C7.13397 10.1478 7.55789 10.3188 7.99992 10.3188C8.44195 10.3188 8.86587 10.1478 9.17843 9.84334C9.49099 9.53894 9.66659 9.12607 9.66659 8.69558C9.66659 8.26508 9.49099 7.85222 9.17843 7.54781C8.86587 7.2434 8.44195 7.07239 7.99992 7.07239C7.55789 7.07239 7.13397 7.2434 6.82141 7.54781C6.50885 7.85222 6.33325 8.26508 6.33325 8.69558V8.69558Z" fill="#393939"/>
</svg>
