<svg width="237" height="170" viewBox="0 0 237 170" fill="none" xmlns="http://www.w3.org/2000/svg">
<path d="M16.1636 157C6.9779 146.644 -8.11295 118.241 5.35185 105.716C19.1305 92.8944 44.8334 115.841 67.1701 54.1352C94.5276 -21.4765 142.168 28.6902 159.997 51.9655C177.827 75.2407 192.461 41.9058 206.924 49.4999C221.388 57.0939 232.713 75.7996 236.422 127.216C237.249 138.689 237.135 148.551 236.422 157" fill="#EAEEF9"/>
<path d="M199.422 136.026H58.9111C56.185 136.026 53.9844 133.826 53.9844 131.099L53.9187 34.9619C53.9187 32.2358 56.1193 30.0352 58.8455 30.0352H199.357C202.083 30.0352 204.283 32.2358 204.283 34.9619L204.349 131.099C204.349 133.826 202.148 136.026 199.422 136.026Z" fill="white" stroke="#461B6A" stroke-miterlimit="10"/>
<g filter="url(#filter0_d_79061_848)">
<path d="M195.579 38.4092H62.7211V135.959H195.579V38.4092Z" fill="#F0F3F9"/>
<path d="M195.579 38.4092H62.7211V135.959H195.579V38.4092Z" stroke="#CDD5E4" stroke-width="0.5522" stroke-miterlimit="10"/>
</g>
<path d="M138.363 112.968L130.448 121.245L123.419 112.968V82.3564H138.331L138.363 112.968Z" fill="white"/>
<g filter="url(#filter1_d_79061_848)">
<path d="M91.9204 136.254L95.9275 118.682C97.5698 114.313 101.216 110.963 105.748 109.781L121.153 106.431L130.612 121.244L139.841 106.923L153.538 110.569C158.563 111.653 161.979 114.675 163.556 119.569L166.216 136.254H91.9204Z" fill="url(#paint0_linear_79061_848)"/>
</g>
<path d="M123.55 101.964L116.686 107.482L130.448 121.244L123.55 101.964Z" fill="#DECCFF"/>
<path d="M138.002 101.964L143.684 107.876L130.448 121.244L138.002 101.964Z" fill="#DECCFF"/>
<path d="M130.152 61.4984C129.331 64.5202 126.539 66.6551 123.419 66.6551C119.576 66.6551 116.423 63.502 116.423 59.6591C116.423 55.8162 119.576 52.6631 123.419 52.6631C127.262 52.6631 130.415 55.8162 130.415 59.6591L130.152 61.4984Z" fill="#424242"/>
<path d="M146.377 78.4805C146.082 78.382 145.753 78.4148 145.425 78.5462C145.425 78.2506 145.425 77.955 145.425 77.6594C145.425 66.3607 142.206 57.1641 130.382 57.1641C117.901 57.1641 115.339 66.3278 115.339 77.6594C115.339 77.955 115.339 78.2506 115.372 78.5462C115.043 78.4148 114.715 78.382 114.419 78.4805C113.237 78.8418 112.843 80.9439 113.532 83.1117C114.189 85.2466 115.634 86.6918 116.817 86.429C119.247 93.3265 124.404 98.1219 130.415 98.1219C136.425 98.1219 141.582 93.3593 144.013 86.429C145.162 86.6918 146.607 85.2466 147.297 83.1117C147.987 80.9439 147.56 78.8418 146.377 78.4805Z" fill="white"/>
<path d="M145.458 77.6588C145.622 67.871 146.837 55.5869 130.415 55.9482C113.992 56.3095 112.777 67.871 115.372 77.6588C115.437 77.9544 117.736 72.1408 123.714 72.1408C125.915 72.1408 129.594 71.8124 135.276 68.495C142.567 64.2252 145.458 77.823 145.458 77.6588Z" fill="#424242"/>
<path d="M204.283 44.6184H53.7544V35.3232C53.7544 32.5971 55.955 30.3965 58.6812 30.3965H199.357C202.083 30.3965 204.283 32.5971 204.283 35.3232V44.6184Z" fill="#461B6A"/>
<path d="M68.6766 38.8658C69.4333 38.1089 69.4331 36.8819 68.6763 36.1253C67.9194 35.3686 66.6924 35.3688 65.9357 36.1256C65.1791 36.8825 65.1792 38.1095 65.9361 38.8662C66.693 39.6228 67.92 39.6227 68.6766 38.8658Z" fill="#424242"/>
<path d="M76.4286 38.8668C77.1853 38.1099 77.1851 36.8829 76.4282 36.1262C75.6713 35.3696 74.4444 35.3697 73.6877 36.1266C72.931 36.8835 72.9312 38.1105 73.6881 38.8671C74.445 39.6238 75.6719 39.6236 76.4286 38.8668Z" fill="white"/>
<path d="M84.1806 38.8687C84.9372 38.1118 84.937 36.8849 84.1802 36.1282C83.4233 35.3715 82.1963 35.3717 81.4396 36.1286C80.683 36.8855 80.6832 38.1124 81.44 38.8691C82.1969 39.6258 83.4239 39.6256 84.1806 38.8687Z" fill="white"/>
<path d="M147.665 128.535C149.05 127.149 149.05 124.903 147.664 123.518C146.279 122.133 144.033 122.133 142.648 123.519C141.262 124.904 141.263 127.15 142.648 128.535C144.034 129.92 146.28 129.92 147.665 128.535Z" fill="#DECCFF"/>
<g opacity="0.2">
<g opacity="0.2">
<path opacity="0.2" d="M85.3513 102.26L88.2088 106.103L92.2816 92.3408L79.1436 98.3186L83.3806 100.585L80.6544 103.705C80.1618 104.264 80.2274 105.085 80.753 105.545C81.2785 106.004 82.0996 105.939 82.5923 105.38L85.3513 102.26Z" fill="#26AFAB"/>
</g>
</g>
<path d="M89.621 98.0901L92.4786 101.933L96.5514 88.1709L83.4133 94.1487L87.6503 96.415L84.9242 99.5353C84.4315 100.094 84.4972 100.915 85.0227 101.375C85.5483 101.834 86.3694 101.769 86.8621 101.21L89.621 98.0901Z" fill="#26AFAB"/>
<path opacity="0.2" d="M60.5866 92.9838C65.336 84.5409 62.1752 73.7527 53.5267 68.8877C44.8783 64.0227 34.0172 66.9232 29.2678 75.3661C24.5185 83.809 27.6793 94.5972 36.3277 99.4622C44.9762 104.327 55.8372 101.427 60.5866 92.9838Z" fill="#26AFAB"/>
<path d="M21.1287 87.0989C20.7207 85.949 21.3142 84.6879 22.4641 84.2798L56.6268 72.1504L58.667 77.8256L23.9849 88.5455C22.7979 88.8794 21.5367 88.2488 21.1287 87.0989Z" fill="#26AFAB"/>
<path d="M89.8745 80.1612C95.2381 70.6263 91.6685 58.4429 81.9015 52.9486C72.1345 47.4544 59.8687 50.73 54.5051 60.2649C49.1414 69.7998 52.711 81.9832 62.478 87.4774C72.245 92.9717 84.5108 89.6961 89.8745 80.1612Z" fill="white" stroke="#26AFAB" stroke-miterlimit="10"/>
<path opacity="0.1" d="M86.8355 78.4508C91.275 70.5587 88.3169 60.4723 80.2283 55.9222C72.1398 51.3722 61.9837 54.0815 57.5442 61.9737C53.1046 69.8658 56.0627 79.9522 64.1513 84.5023C72.2398 89.0523 82.3959 86.343 86.8355 78.4508Z" fill="#26AFAB"/>
<path d="M75.6927 76.4912L73.8752 71.1127L79.2907 69.4435L78.4376 66.9212L73.0591 68.5904L71.2416 63.1748L68.6821 63.9909L70.4997 69.3694L65.047 71.0385L65.9372 73.5609L71.3528 71.8917L73.1333 77.2702L75.6927 76.4912Z" fill="#424242"/>
<path d="M33.7848 116.778L33.8176 123.676" stroke="#26AFAB" stroke-miterlimit="10" stroke-linecap="round"/>
<path d="M37.2664 120.228H30.3689" stroke="#26AFAB" stroke-miterlimit="10" stroke-linecap="round"/>
<path d="M133.305 1L133.338 7.89747" stroke="#424242" stroke-miterlimit="10" stroke-linecap="round"/>
<path d="M136.787 4.44922H129.889" stroke="#424242" stroke-miterlimit="10" stroke-linecap="round"/>
<path opacity="0.2" d="M223.117 72.8663H181.732C179.006 72.8663 176.805 70.6657 176.772 67.9395L176.707 54.8672C176.707 52.141 178.874 49.9404 181.6 49.9404H222.985C225.711 49.9404 227.912 52.141 227.945 54.8672L228.011 67.9395C228.043 70.6657 225.843 72.8663 223.117 72.8663Z" fill="#26AFAB"/>
<path d="M228.733 67.9405H187.348C184.622 67.9405 182.422 65.7399 182.389 63.0137L182.323 49.9414C182.323 47.2153 184.491 45.0146 187.217 45.0146H228.602C231.328 45.0146 233.528 47.2153 233.561 49.9414L233.627 63.0137C233.66 65.7399 231.459 67.9405 228.733 67.9405Z" fill="#26AFAB"/>
<path d="M192.802 54.0842C193.98 52.9024 193.967 50.9788 192.773 49.7876C191.578 48.5964 189.654 48.5887 188.476 49.7705C187.298 50.9522 187.311 52.8758 188.505 54.067C189.7 55.2582 191.624 55.2659 192.802 54.0842Z" fill="white"/>
<path d="M189.635 63.7925C190.058 63.3686 190.057 62.6823 189.633 62.2596C189.209 61.837 188.523 61.8379 188.1 62.2618C187.677 62.6857 187.678 63.372 188.102 63.7946C188.526 64.2173 189.212 64.2163 189.635 63.7925Z" fill="#424242"/>
<path d="M193.54 63.7847C193.963 63.3608 193.962 62.6745 193.538 62.2518C193.114 61.8291 192.428 61.8301 192.005 62.254C191.583 62.6779 191.584 63.3641 192.007 63.7868C192.431 64.2095 193.118 64.2085 193.54 63.7847Z" fill="#424242"/>
<path d="M197.313 63.7309C197.736 63.3071 197.735 62.6208 197.311 62.1981C196.887 61.7754 196.201 61.7764 195.778 62.2003C195.355 62.6242 195.356 63.3104 195.78 63.7331C196.204 64.1558 196.89 64.1548 197.313 63.7309Z" fill="#424242"/>
<path d="M195.822 50.498H202.753" stroke="white" stroke-miterlimit="10" stroke-linecap="round"/>
<path d="M187.644 57.1006H204.953" stroke="white" stroke-miterlimit="10" stroke-linecap="round"/>
<path d="M208.435 57.1006H217.96" stroke="white" stroke-miterlimit="10" stroke-linecap="round"/>
<path d="M187.644 59.2676H208.435" stroke="white" stroke-miterlimit="10" stroke-linecap="round"/>
<path d="M211.916 59.2676H217.96" stroke="white" stroke-miterlimit="10" stroke-linecap="round"/>
<path d="M221.409 57.1006H228.339" stroke="white" stroke-miterlimit="10" stroke-linecap="round"/>
<path d="M206.234 50.498H210.997" stroke="white" stroke-miterlimit="10" stroke-linecap="round"/>
<path d="M195.855 52.7646H198.45" stroke="white" stroke-miterlimit="10" stroke-linecap="round"/>
<path d="M201.899 52.7646H206.661" stroke="white" stroke-miterlimit="10" stroke-linecap="round"/>
<path d="M49.9318 126.139C49.9318 126.139 57.7733 133.194 60.5264 148.901" stroke="#26AFAB" stroke-miterlimit="10" stroke-linecap="round"/>
<path d="M42.7294 114.659C45.2859 113.086 48.5306 115.741 53.7419 119.846C58.9532 123.926 61.1409 130.391 54.5531 133.169C47.9652 135.947 46.0233 130.367 44.4501 124.762C42.9014 119.133 40.2466 116.183 42.7294 114.659Z" fill="#80D0CE"/>
<path d="M84.5672 105.491C80.9783 103.304 76.4307 107.015 69.1546 112.743C61.8784 118.446 58.8057 127.492 68.0238 131.4C77.2419 135.284 79.9459 127.492 82.1582 119.626C84.346 111.76 88.0578 107.605 84.5672 105.491Z" fill="#80D0CE"/>
<path d="M71.6619 123.583C71.6619 123.583 63.0337 134.571 65.9835 152.81" stroke="#26AFAB" stroke-miterlimit="10" stroke-linecap="round"/>
<path d="M61.5591 101.852C58.0931 101.803 56.4215 106.35 53.6684 113.479C50.9152 120.583 52.5376 128.302 60.6987 127.196C68.8598 126.089 67.5078 119.403 65.7625 112.914C64.0418 106.4 64.9267 101.901 61.5591 101.852Z" fill="#DECCFF"/>
<path d="M60.1825 117.952C60.1825 117.952 58.6092 135.995 65.4675 151.826" stroke="#26AFAB" stroke-miterlimit="10" stroke-linecap="round"/>
<path d="M72.5223 156.619H53.9387L48.2112 136.708H78.2253L72.5223 156.619Z" fill="#26AFAB"/>
<defs>
<filter id="filter0_d_79061_848" x="40.4449" y="27.1328" width="177.411" height="142.103" filterUnits="userSpaceOnUse" color-interpolation-filters="sRGB">
<feFlood flood-opacity="0" result="BackgroundImageFix"/>
<feColorMatrix in="SourceAlpha" type="matrix" values="0 0 0 0 0 0 0 0 0 0 0 0 0 0 0 0 0 0 127 0" result="hardAlpha"/>
<feOffset dy="11"/>
<feGaussianBlur stdDeviation="11"/>
<feColorMatrix type="matrix" values="0 0 0 0 0.397708 0 0 0 0 0.47749 0 0 0 0 0.575 0 0 0 0.18 0"/>
<feBlend mode="normal" in2="BackgroundImageFix" result="effect1_dropShadow_79061_848"/>
<feBlend mode="normal" in="SourceGraphic" in2="effect1_dropShadow_79061_848" result="shape"/>
</filter>
<filter id="filter1_d_79061_848" x="83.9204" y="103.431" width="90.2955" height="45.8232" filterUnits="userSpaceOnUse" color-interpolation-filters="sRGB">
<feFlood flood-opacity="0" result="BackgroundImageFix"/>
<feColorMatrix in="SourceAlpha" type="matrix" values="0 0 0 0 0 0 0 0 0 0 0 0 0 0 0 0 0 0 127 0" result="hardAlpha"/>
<feOffset dy="5"/>
<feGaussianBlur stdDeviation="4"/>
<feColorMatrix type="matrix" values="0 0 0 0 0 0 0 0 0 0.631373 0 0 0 0 0.611765 0 0 0 0.22 0"/>
<feBlend mode="normal" in2="BackgroundImageFix" result="effect1_dropShadow_79061_848"/>
<feBlend mode="normal" in="SourceGraphic" in2="effect1_dropShadow_79061_848" result="shape"/>
</filter>
<linearGradient id="paint0_linear_79061_848" x1="91.8382" y1="121.327" x2="166.084" y2="121.327" gradientUnits="userSpaceOnUse">
<stop stop-color="#80D0CE"/>
<stop offset="1" stop-color="#26AFAB"/>
</linearGradient>
</defs>
</svg>
