<svg width="208" height="183" viewBox="0 0 208 183" fill="none" xmlns="http://www.w3.org/2000/svg">
<path d="M204.493 155.291C206.098 131.141 213.853 101.569 198.752 87.2755C188.985 78.0096 184.822 81.9854 174.673 69.0394C167.327 59.675 162.022 24.1886 138.759 19.2599C104.369 11.9655 104.478 50.3105 71.4202 35.5245C54.3066 27.8686 46.1171 34.8016 40.4034 43.4104C32.2411 55.732 37.5466 70.0252 24.4869 81.8539C10.747 94.307 0 91.7113 0 114.383C0 134.295 5.08783 155.291 5.08783 155.291" fill="#EAEEF9"/>
<path d="M44.5309 77.9236C40.1702 76.1683 37.5098 81.7632 38.1132 90.9784C38.6069 98.4932 37.2356 103.649 32.2714 109.436C27.3073 115.223 25.6617 125.974 35.59 128.47C45.5183 130.966 48.8369 123.506 47.1639 111.932C45.5183 100.358 47.3284 98.5481 49.0288 92.9531C51.4423 85.1641 49.1385 79.7611 44.5309 77.9236Z" fill="#80D0CE"/>
<path d="M38.5795 114.291C38.5795 114.291 32.4909 130.527 36.7694 151.289" stroke="#26AFAB" stroke-miterlimit="10" stroke-linecap="round"/>
<path d="M18.6406 95.0097C24.1258 94.7629 20.8073 102.387 25.4149 108.119C27.4444 110.643 31.2018 113.632 31.9149 116.841C32.7925 120.9 30.571 124.959 26.4022 126.413C21.9317 127.949 17.379 124.904 16.2819 121.449C15.322 118.404 16.4465 116.484 16.803 114.181C18.1743 105.185 11.9212 95.3114 18.6406 95.0097Z" fill="#DECCFF"/>
<path d="M24.0709 118.623C24.0709 118.623 26.3199 135.902 36.0562 149.34" stroke="#26AFAB" stroke-miterlimit="10" stroke-linecap="round"/>
<path d="M42.5288 154.963H21.7946L15.4043 132.775H48.8917L42.5288 154.963Z" fill="#26AFAB"/>
<path d="M156.901 29.2666H101.787C99.3562 29.2666 97.3855 31.2373 97.3855 33.6678V150.071C97.3855 152.501 99.3562 154.472 101.787 154.472H156.901C159.331 154.472 161.302 152.501 161.302 150.071V33.6678C161.302 31.2373 159.298 29.2666 156.901 29.2666Z" fill="white" stroke="#461B6A" stroke-miterlimit="10"/>
<g filter="url(#filter0_d_79059_1057)">
<path d="M152.171 34.0947H106.484C104.053 34.0947 102.083 36.0654 102.083 38.496V145.177C102.083 147.607 104.053 149.578 106.484 149.578H152.171C154.602 149.578 156.572 147.607 156.572 145.177V38.5288C156.572 36.0983 154.602 34.0947 152.171 34.0947Z" fill="#F0F3F9"/>
<path d="M152.171 34.0947H106.484C104.053 34.0947 102.083 36.0654 102.083 38.496V145.177C102.083 147.607 104.053 149.578 106.484 149.578H152.171C154.602 149.578 156.572 147.607 156.572 145.177V38.5288C156.572 36.0983 154.602 34.0947 152.171 34.0947Z" stroke="#CDD5E4" stroke-width="0.5522" stroke-miterlimit="10"/>
</g>
<path d="M150.233 33.668H143.894C143.894 36.0985 141.923 38.529 139.493 38.529H119.655C117.224 38.529 115.253 36.0985 115.253 33.668H108.389" fill="white"/>
<path d="M150.233 33.668H143.894C143.894 36.0985 141.923 38.529 139.493 38.529H119.655C117.224 38.529 115.253 36.0985 115.253 33.668H108.389" stroke="#461B6A" stroke-miterlimit="10" stroke-linecap="round"/>
<path d="M121.757 34.0947H131.709" stroke="#461B6A" stroke-miterlimit="10" stroke-linecap="round"/>
<path d="M135.946 35.2441C136.49 35.2441 136.931 34.803 136.931 34.2588C136.931 33.7146 136.49 33.2734 135.946 33.2734C135.401 33.2734 134.96 33.7146 134.96 34.2588C134.96 34.803 135.401 35.2441 135.946 35.2441Z" fill="#461B6A"/>
<path d="M148.525 142.779H110.162C109.177 142.779 108.389 141.99 108.389 141.005V135.717C108.389 134.732 109.177 133.943 110.162 133.943H148.525C149.511 133.943 150.299 134.732 150.299 135.717V141.005C150.266 141.99 149.478 142.779 148.525 142.779Z" fill="white"/>
<path d="M163.864 45.7871V54.6224" stroke="#461B6A" stroke-miterlimit="10" stroke-linecap="round"/>
<path d="M163.864 58.5645V70.4872" stroke="#461B6A" stroke-miterlimit="10" stroke-linecap="round"/>
<path d="M135.943 110.099L130.407 115.887L125.491 110.099V88.6895H135.92L135.943 110.099Z" fill="white"/>
<g filter="url(#filter1_d_79059_1057)">
<path d="M103.462 126.387L106.264 114.098C107.413 111.042 109.963 108.699 113.133 107.872L123.906 105.529L130.522 115.889L136.977 105.874L146.556 108.424C150.071 109.182 152.46 111.295 153.562 114.718L155.423 126.387H103.462Z" fill="url(#paint0_linear_79059_1057)"/>
</g>
<path d="M125.583 102.405L120.782 106.264L130.407 115.889L125.583 102.405Z" fill="#DECCFF"/>
<path d="M135.691 102.405L139.665 106.54L130.407 115.889L135.691 102.405Z" fill="#DECCFF"/>
<path d="M130.201 74.1051C129.626 76.2184 127.674 77.7115 125.492 77.7115C122.804 77.7115 120.599 75.5063 120.599 72.8187C120.599 70.131 122.804 67.9258 125.492 67.9258C128.179 67.9258 130.384 70.131 130.384 72.8187L130.201 74.1051Z" fill="#424242"/>
<path d="M141.548 85.9796C141.341 85.9107 141.112 85.9337 140.882 86.0256C140.882 85.8188 140.882 85.6121 140.882 85.4054C140.882 77.5032 138.631 71.0713 130.361 71.0713C121.632 71.0713 119.84 77.4803 119.84 85.4054C119.84 85.6121 119.84 85.8188 119.863 86.0256C119.634 85.9337 119.404 85.9107 119.197 85.9796C118.37 86.2323 118.095 87.7025 118.577 89.2186C119.036 90.7117 120.047 91.7225 120.874 91.5387C122.574 96.3626 126.18 99.7165 130.384 99.7165C134.588 99.7165 138.194 96.3856 139.894 91.5387C140.698 91.7225 141.709 90.7117 142.191 89.2186C142.674 87.7025 142.375 86.2323 141.548 85.9796Z" fill="white"/>
<path d="M140.905 85.4053C141.02 78.5598 141.87 69.9686 130.384 70.2213C118.899 70.474 118.049 78.5598 119.863 85.4053C119.909 85.612 121.517 81.5461 125.698 81.5461C127.237 81.5461 129.81 81.3164 133.784 78.9963C138.884 76.01 140.905 85.5201 140.905 85.4053Z" fill="#424242"/>
<path d="M67.2339 26.9001H50.1873C47.4611 26.9001 45.2605 24.6995 45.2605 21.9733V4.92676C45.2605 2.20062 47.4611 0 50.1873 0H67.2339C69.96 0 72.1606 2.20062 72.1606 4.92676V21.9733C72.1606 24.6995 69.96 26.9001 67.2339 26.9001Z" fill="#763F98"/>
<path d="M64.0808 8.90162C63.4239 8.24472 62.5371 7.85059 61.5846 7.85059C60.6321 7.85059 59.7453 8.21188 59.0884 8.90162L58.7271 9.26292L58.3658 8.90162C57.7089 8.24472 56.7892 7.85059 55.8695 7.85059C54.917 7.85059 54.0302 8.21188 53.3733 8.90162C52.7164 9.55852 52.3223 10.4453 52.3223 11.3978C52.3223 12.3504 52.6836 13.2372 53.3733 13.8941L58.4643 18.9851C58.53 19.0507 58.6285 19.0836 58.7271 19.0836C58.8256 19.0836 58.9241 19.0507 58.9898 18.9851L64.0808 13.8941C64.7377 13.2372 65.1318 12.3504 65.1318 11.3978C65.1318 10.4453 64.7705 9.55852 64.0808 8.90162Z" fill="white"/>
<path d="M190.173 114.992C191.553 113.974 191.848 112.036 190.83 110.656C189.812 109.277 187.874 108.981 186.494 109.999L184.721 111.313C184.721 111.313 183.341 112.2 183.538 113.875C183.834 116.569 186.166 117.028 187.217 116.864C189.089 116.536 190.173 114.992 190.173 114.992Z" fill="#26AFAB"/>
<path d="M17.9991 47.2979V54.1953" stroke="#26AFAB" stroke-miterlimit="10" stroke-linecap="round"/>
<path d="M21.415 50.7793H14.5176" stroke="#26AFAB" stroke-miterlimit="10" stroke-linecap="round"/>
<path d="M184.983 23.6484V30.5459" stroke="#424242" stroke-miterlimit="10" stroke-linecap="round"/>
<path d="M188.465 27.1299H181.568" stroke="#424242" stroke-miterlimit="10" stroke-linecap="round"/>
<path d="M123.186 122.332C123.218 126.821 118.925 129.887 112.632 129.887H46C52.6862 129.887 57.2091 126.649 57.2091 121.89L57.2419 63.5606V55H122.956L123.186 122.332Z" fill="#26AFAB"/>
<path d="M75.5442 75.6567C65.3327 81.5524 61.2425 93.571 66.3979 102.501C69.6741 107.892 75.5224 111.187 81.8304 111.196C83.3711 111.279 84.9071 110.961 86.287 110.271C86.9631 109.981 87.469 109.397 87.6595 108.686C87.8499 107.975 87.7041 107.216 87.2632 106.626C86.5608 105.405 86.4454 103.933 86.9497 102.617C87.4536 101.301 88.5233 100.282 89.8622 99.843C90.9035 99.5234 92.0227 99.5708 93.0335 99.9764C94.0442 100.383 94.8855 101.123 95.4165 102.073L95.73 102.616C97.4106 105.527 100.283 103.407 102.147 100.606C106.108 94.607 106.812 87.1303 103.364 81.1584C98.209 72.2285 85.7561 69.7613 75.5446 75.6569L75.5442 75.6567ZM77.8198 103.608C77.2071 103.962 76.4785 104.058 75.7952 103.875C75.1119 103.692 74.5294 103.245 74.1755 102.631C73.8217 102.019 73.7258 101.291 73.9089 100.608C74.0918 99.9239 74.5392 99.3412 75.1519 98.9874C75.7646 98.6337 76.4929 98.5375 77.1765 98.721C77.8598 98.9041 78.4423 99.3512 78.796 99.9638C79.1499 100.577 79.2459 101.305 79.0628 101.988C78.8797 102.671 78.4325 103.255 77.8198 103.608ZM76.5273 92.0326L76.5271 92.0322C75.7612 92.4744 74.8512 92.5944 73.9969 92.3652C73.1423 92.1365 72.4142 91.5775 71.9721 90.8117C71.5297 90.0455 71.4097 89.1355 71.6389 88.2811C71.8678 87.427 72.4266 86.6985 73.1924 86.2564C73.9586 85.814 74.8688 85.6944 75.723 85.9232C76.5771 86.1521 77.3056 86.7109 77.748 87.4771C78.1901 88.2429 78.3098 89.1531 78.0809 90.0073C77.8523 90.8618 77.2933 91.5899 76.5271 92.0322L76.5273 92.0326ZM87.4125 84.2076C86.6467 84.6497 85.7365 84.7694 84.8819 84.5408C84.0276 84.3115 83.2991 83.7527 82.857 82.9869C82.4148 82.2211 82.2952 81.3109 82.5238 80.4563C82.753 79.602 83.3118 78.8735 84.0776 78.4313C84.8434 77.9892 85.7537 77.8695 86.6082 78.0982C87.4626 78.3274 88.1911 78.8862 88.6332 79.652C89.0753 80.4178 89.195 81.328 88.9664 82.1826C88.7371 83.037 88.1783 83.7654 87.4125 84.2076ZM98.6135 91.6031C97.6945 92.1336 96.6022 92.2775 95.5766 92.0026C94.5517 91.728 93.6776 91.0573 93.1471 90.1383C92.6162 89.2189 92.4724 88.1266 92.7471 87.1017C93.0221 86.0765 93.6928 85.2025 94.6118 84.6719C95.5308 84.1413 96.6231 83.9975 97.6484 84.2719C98.6734 84.5465 99.5474 85.2172 100.078 86.1366C100.609 87.0556 100.753 88.1479 100.478 89.1728C100.203 90.1984 99.5325 91.0725 98.6135 91.6031Z" fill="white"/>
<g clip-path="url(#clip0_79059_1057)">
<path d="M104.67 97.1621C104.695 88.2159 98.0072 80.4226 89.1595 79.0502C84.1321 78.2924 79.1478 79.5705 75.1776 82.656C71.1676 85.7294 68.6688 90.2409 68.1322 95.248C67.4886 101.342 69.9366 107.319 74.6265 111.249C75.1104 111.65 75.6687 111.945 76.2224 112.109C77.1325 112.379 78.1369 112.332 79.1159 111.934C80.6358 111.308 81.6355 109.968 81.8157 108.343L82.6613 100.113C82.8603 98.2778 84.4333 96.8925 86.1846 96.9382C87.165 96.9706 88.0286 97.3985 88.6559 98.1872C89.1879 98.8615 89.4798 99.7658 89.3918 100.644L88.4992 109.032C88.3305 110.618 89.0636 112.212 90.4267 113.132C91.7898 114.053 93.4386 114.154 94.8634 113.414C100.869 110.286 104.655 104.047 104.671 97.1637L104.67 97.1621ZM73.0184 89.5063C73.1181 88.5889 73.5342 87.7653 74.2599 87.2054C74.9855 86.6455 75.8503 86.342 76.7561 86.4812C76.9655 86.5003 77.1754 86.5195 77.3732 86.578C78.9165 87.0353 79.9733 88.5535 79.7811 90.2189C79.5702 92.0938 77.9183 93.4552 76.0435 93.2439C75.834 93.2249 75.6358 93.1662 75.4381 93.1076C74.8048 92.92 74.1907 92.5229 73.7817 92.0141C73.1706 91.3163 72.9188 90.4238 73.0185 89.5063L73.0184 89.5063ZM76.6677 103.631C75.942 104.19 75.0773 104.494 74.1715 104.355C73.9621 104.336 73.7521 104.317 73.5544 104.258C72.0111 103.801 70.9543 102.283 71.1465 100.617C71.2462 99.6997 71.7018 98.8878 72.3879 98.3162C73.1136 97.7563 73.9783 97.4528 74.8841 97.592C75.8015 97.6918 76.6138 98.1476 77.185 98.8335C77.7566 99.5196 78.0484 100.424 77.9092 101.33C77.8212 102.208 77.3655 103.019 76.6677 103.631L76.6677 103.631ZM89.7002 88.1216C88.9746 88.6814 88.1098 88.9849 87.204 88.8457C86.9946 88.8267 86.7847 88.8075 86.5869 88.7489C85.0436 88.2917 83.9868 86.7735 84.179 85.1081C84.2787 84.1907 84.7344 83.3788 85.4205 82.8071C86.1461 82.2473 86.9991 81.9833 87.9166 82.083C88.8341 82.1827 89.6464 82.6385 90.2176 83.3245C90.7891 84.0106 91.0809 84.9149 90.9417 85.8206C90.8538 86.6981 90.4376 87.5221 89.7002 88.1216L89.7002 88.1216ZM94.0651 91.696C94.1648 90.7786 94.5809 89.955 95.3066 89.395C95.9927 88.8235 96.8853 88.5712 97.8027 88.6709C98.7201 88.7706 99.5325 89.2264 100.104 89.9124C100.675 90.5985 100.967 91.5028 100.828 92.4085C100.728 93.3259 100.272 94.1378 99.5863 94.7095C98.9002 95.2811 97.996 95.5728 97.0902 95.4336C96.8807 95.4146 96.6708 95.3954 96.4731 95.3368C94.9298 94.8796 93.9124 93.3731 94.0651 91.696L94.0651 91.696ZM98.4617 105.913C97.7361 106.473 96.8713 106.777 95.9655 106.638C95.7561 106.619 95.5462 106.599 95.3484 106.541C93.8051 106.083 92.7483 104.565 92.9405 102.9C93.0402 101.983 93.4959 101.171 94.182 100.599C94.9076 100.039 95.7606 99.7751 96.6781 99.8748C97.5956 99.9746 98.4079 100.43 98.9791 101.116C99.5506 101.802 99.8424 102.707 99.7427 103.624C99.6157 104.49 99.1595 105.302 98.4617 105.913L98.4617 105.913ZM115.265 89.1532C114.491 87.116 113.839 87.1379 113.618 87.1584C113.306 87.1951 113.026 87.4136 112.92 87.7696C112.831 88.2168 112.208 89.8831 108.756 92.0889C106.354 93.6587 106.898 96.6176 107.591 98.2007L102.655 114.861C102.221 116.325 103.057 117.864 104.521 118.298C105.985 118.732 107.524 117.896 107.958 116.432L112.917 99.693C117.546 95.9846 115.708 90.2746 115.266 89.153L115.265 89.1532ZM112.191 98.6595L108.788 97.6513C108.461 96.8656 107.606 94.3738 109.512 93.1735C111.594 91.8102 113.151 90.3345 113.838 89.0315C114.233 89.8802 114.795 91.4675 114.727 93.298C114.67 95.5204 113.831 97.3376 112.191 98.6595L112.191 98.6595Z" fill="white"/>
</g>
<circle cx="86.0608" cy="80.9854" r="4" fill="#763F98"/>
<circle cx="75.0608" cy="88.9854" r="4" fill="#DECCFF"/>
<defs>
<filter id="filter0_d_79059_1057" x="79.8064" y="22.8184" width="99.0422" height="160.036" filterUnits="userSpaceOnUse" color-interpolation-filters="sRGB">
<feFlood flood-opacity="0" result="BackgroundImageFix"/>
<feColorMatrix in="SourceAlpha" type="matrix" values="0 0 0 0 0 0 0 0 0 0 0 0 0 0 0 0 0 0 127 0" result="hardAlpha"/>
<feOffset dy="11"/>
<feGaussianBlur stdDeviation="11"/>
<feColorMatrix type="matrix" values="0 0 0 0 0.397708 0 0 0 0 0.47749 0 0 0 0 0.575 0 0 0 0.18 0"/>
<feBlend mode="normal" in2="BackgroundImageFix" result="effect1_dropShadow_79059_1057"/>
<feBlend mode="normal" in="SourceGraphic" in2="effect1_dropShadow_79059_1057" result="shape"/>
</filter>
<filter id="filter1_d_79059_1057" x="95.4619" y="102.529" width="67.9609" height="36.8574" filterUnits="userSpaceOnUse" color-interpolation-filters="sRGB">
<feFlood flood-opacity="0" result="BackgroundImageFix"/>
<feColorMatrix in="SourceAlpha" type="matrix" values="0 0 0 0 0 0 0 0 0 0 0 0 0 0 0 0 0 0 127 0" result="hardAlpha"/>
<feOffset dy="5"/>
<feGaussianBlur stdDeviation="4"/>
<feColorMatrix type="matrix" values="0 0 0 0 0 0 0 0 0 0.631373 0 0 0 0 0.611765 0 0 0 0.22 0"/>
<feBlend mode="normal" in2="BackgroundImageFix" result="effect1_dropShadow_79059_1057"/>
<feBlend mode="normal" in="SourceGraphic" in2="effect1_dropShadow_79059_1057" result="shape"/>
</filter>
<linearGradient id="paint0_linear_79059_1057" x1="103.404" y1="115.947" x2="155.33" y2="115.947" gradientUnits="userSpaceOnUse">
<stop stop-color="#80D0CE"/>
<stop offset="1" stop-color="#26AFAB"/>
</linearGradient>
<clipPath id="clip0_79059_1057">
<rect width="9.28328" height="34" fill="white" transform="translate(109.719 84.9854) rotate(16.5038)"/>
</clipPath>
</defs>
</svg>
