<svg width="16" height="16" viewBox="0 0 16 16" fill="none" xmlns="http://www.w3.org/2000/svg">
<path d="M13.5023 4.5056L10.4309 1.49449C10.3254 1.39185 10.1829 1.33399 10.0343 1.33337H3.46659C3.16601 1.33337 2.87774 1.45044 2.6652 1.65881C2.45266 1.86718 2.33325 2.1498 2.33325 2.44449V13.5556C2.33325 13.8503 2.45266 14.1329 2.6652 14.3413C2.87774 14.5496 3.16601 14.6667 3.46659 14.6667H12.5333C12.8338 14.6667 13.1221 14.5496 13.3346 14.3413C13.5472 14.1329 13.6666 13.8503 13.6666 13.5556V4.89449C13.666 4.74874 13.6069 4.60907 13.5023 4.5056V4.5056ZM12.5333 13.2778C12.5333 13.3515 12.5034 13.4221 12.4503 13.4742C12.3971 13.5263 12.3251 13.5556 12.2499 13.5556H3.74992C3.67477 13.5556 3.60271 13.5263 3.54957 13.4742C3.49644 13.4221 3.46659 13.3515 3.46659 13.2778V2.72226C3.46659 2.64859 3.49644 2.57794 3.54957 2.52584C3.60271 2.47375 3.67477 2.44449 3.74992 2.44449H9.69992C9.73793 2.44394 9.77565 2.45106 9.81074 2.4654C9.84583 2.47973 9.87755 2.50098 9.90392 2.52782L12.4709 5.04449C12.5126 5.09461 12.5347 5.15763 12.5333 5.22226V13.2778Z" fill="white"/>
<path d="M6.18656 6.88897C6.81248 6.88897 7.31989 6.39151 7.31989 5.77786C7.31989 5.16421 6.81248 4.66675 6.18656 4.66675C5.56063 4.66675 5.05322 5.16421 5.05322 5.77786C5.05322 6.39151 5.56063 6.88897 6.18656 6.88897Z" fill="white"/>
<path d="M9.25803 7.26665C9.23335 7.22638 9.19846 7.19306 9.15676 7.16993C9.11505 7.1468 9.06795 7.13464 9.02003 7.13464C8.97212 7.13464 8.92502 7.1468 8.88331 7.16993C8.84161 7.19306 8.80672 7.22638 8.78203 7.26665L7.43337 9.42221C7.42019 9.44162 7.40257 9.45776 7.38191 9.46933C7.36125 9.48091 7.33812 9.4876 7.31437 9.48887C7.28964 9.48847 7.26538 9.48219 7.24367 9.47058C7.22196 9.45897 7.20344 9.44237 7.1897 9.42221L6.70237 8.65554C6.67696 8.61534 6.6415 8.58217 6.59935 8.55917C6.55721 8.53616 6.50977 8.52409 6.46153 8.52409C6.4133 8.52409 6.36586 8.53616 6.32371 8.55917C6.28157 8.58217 6.24611 8.61534 6.2207 8.65554L4.60003 11.1222C4.5876 11.1433 4.58105 11.1673 4.58105 11.1917C4.58105 11.216 4.5876 11.24 4.60003 11.2611C4.61271 11.2826 4.63085 11.3006 4.65269 11.3133C4.67453 11.3259 4.69934 11.3328 4.7247 11.3333H11.5814C11.6067 11.3328 11.6315 11.3259 11.6534 11.3133C11.6752 11.3006 11.6934 11.2826 11.706 11.2611C11.7185 11.24 11.725 11.216 11.725 11.1917C11.725 11.1673 11.7185 11.1433 11.706 11.1222L9.25803 7.26665Z" fill="white"/>
</svg>
