<svg width="336" height="141" viewBox="0 0 336 141" fill="none" xmlns="http://www.w3.org/2000/svg">
<mask id="mask0_0_9758" style="mask-type:alpha" maskUnits="userSpaceOnUse" x="0" y="0" width="336" height="141">
<path fill-rule="evenodd" clip-rule="evenodd" d="M0 141H335.96V0H0V141Z" fill="white"/>
</mask>
<g mask="url(#mask0_0_9758)">
<path fill-rule="evenodd" clip-rule="evenodd" d="M215.382 58.7193C212.223 58.6234 209.159 59.8068 206.885 62.0013C204.611 64.1957 203.319 67.2152 203.302 70.3754V70.4227C203.306 73.5721 204.587 76.5854 206.854 78.7724C209.12 80.9595 212.177 82.1329 215.324 82.0242C218.484 82.1184 221.549 80.935 223.826 78.7415C226.102 76.548 227.399 73.5295 227.423 70.3681V70.2972C227.408 67.1496 226.119 64.1421 223.85 61.9603C221.582 59.7785 218.526 58.6082 215.38 58.7164L215.382 58.7193ZM221.078 70.4153C221.154 71.9751 220.588 73.4979 219.511 74.6291C218.435 75.7604 216.942 76.4013 215.38 76.4027C213.815 76.3796 212.326 75.7262 211.249 74.5903C210.172 73.4545 209.598 71.9322 209.659 70.3681V70.2972C209.585 68.7439 210.147 67.2275 211.216 66.0979C212.285 64.9684 213.768 64.3232 215.323 64.3113C216.895 64.3293 218.393 64.982 219.477 66.1213C220.56 67.2606 221.138 68.7895 221.077 70.3607L221.078 70.4153ZM287.94 65.4415C287.94 66.4537 288.698 66.8993 291.816 67.5972V67.6001C296.949 68.7229 300.152 70.3961 300.152 74.5849V74.6469C300.152 79.2179 296.543 81.9371 291.108 81.9371C287.276 82.023 283.545 80.7083 280.613 78.2396L282.952 75.4363C283.159 75.1415 283.459 74.9248 283.804 74.821C284.476 74.7181 285.162 74.8656 285.731 75.2356C287.425 76.2426 289.358 76.7766 291.329 76.7819C292.992 76.7819 293.877 76.2212 293.877 75.2474V75.1928C293.877 74.2603 293.148 73.7454 290.113 73.0504C285.354 71.9512 281.665 70.613 281.665 66.0066V65.9446C281.665 61.7824 284.966 58.7725 290.332 58.7725C293.659 58.6414 296.924 59.6972 299.544 61.7514L297.603 64.4972L297.579 64.5255C297.203 64.9806 296.892 65.3578 296.469 65.4489C295.951 65.5476 295.414 65.4697 294.945 65.2276C294.804 65.1479 294.482 64.9915 294.482 64.9915C293.142 64.3214 291.669 63.9571 290.171 63.9247C288.667 63.9247 287.94 64.5621 287.94 65.3663V65.4415ZM261.191 81.5491L262.319 78.7192C262.477 78.2351 262.863 77.8601 263.352 77.7173H271.356L272.926 81.5535H279.576L270.105 59.1575H265.027C264.423 59.2098 263.907 59.6112 263.708 60.183L254.669 81.5535L261.191 81.5491ZM267.073 66.5112L269.573 72.8808H264.535L267.073 66.5112ZM245.743 60.5917V71.001L236.535 59.1516H232.334C231.453 59.1557 230.74 59.8722 230.741 60.754V81.5491H236.885V69.2748L246.454 81.5491H251.878V59.1516H247.322C246.492 59.1254 245.792 59.7633 245.742 60.5917H245.743ZM200.794 67.0468V67.1014L200.788 67.1044C200.916 70.0544 199.255 72.7912 196.579 74.039L201.743 81.5506H194.568L190.248 75.1485H188.05C187.664 75.1924 187.365 75.5075 187.343 75.8951V81.5506H181.146V60.6153C181.2 59.7841 181.896 59.1411 182.729 59.1531H191.49C197.148 59.1531 200.794 62.0701 200.794 67.0468ZM191.043 70.2928C193.25 70.2928 194.592 69.1582 194.592 67.3876V67.3242C194.592 65.3987 193.25 64.3821 191.006 64.3821H188.303C187.77 64.387 187.341 64.82 187.34 65.353V70.2928H191.043ZM158.391 64.6035V60.692L158.389 60.6979C158.433 59.8481 159.126 59.1765 159.977 59.159H178.033V64.6094H172.091C171.894 64.5981 171.7 64.6668 171.553 64.8C171.407 64.9332 171.32 65.1197 171.312 65.3176V81.5476H165.102V64.6035H158.391ZM137.643 60.7038V81.5506H155.643V76.2625H143.777V73.5698C143.784 73.1323 144.115 72.7682 144.55 72.7199H154.248V67.8303H143.772V65.2851C143.77 64.8618 144.079 64.5012 144.498 64.4382H155.639V59.1531H139.237C138.374 59.1551 137.669 59.8415 137.643 60.7038ZM121.549 79.4917V79.4913V79.491C121.547 77.8374 121.545 76.0485 121.551 75.901C121.57 75.5796 121.774 75.2987 122.075 75.1825C122.213 75.1475 122.356 75.136 122.498 75.1485H124.888C126.547 75.1979 128.202 74.9598 129.779 74.4448C131.46 73.8977 132.904 72.7951 133.875 71.3183C134.764 69.8008 135.147 68.0396 134.968 66.2899C134.885 64.9902 134.466 63.7343 133.751 62.6455C132.073 60.4864 129.501 59.213 126.766 59.1885C126.409 59.1649 126.039 59.1457 125.694 59.1531H118.113L118.015 59.153C116.959 59.1515 115.35 59.1492 115.35 60.6168V81.5506H121.551C121.551 81.0176 121.55 80.2696 121.549 79.4917ZM128.801 67.3862C128.801 69.1567 127.461 70.2913 125.26 70.2913H121.557V65.3515C121.557 64.8185 121.987 64.3855 122.52 64.3807H125.223C127.467 64.3807 128.807 65.3973 128.807 67.3227L128.801 67.3862Z" fill="#212121"/>
<path fill-rule="evenodd" clip-rule="evenodd" d="M89.4515 61.6702L111.785 23H77.3191C67.7097 23.2538 65.1926 25.1468 61.5321 31.4765C61.5321 31.4765 39.3772 69.8576 39.3654 69.8797C31.5128 83.2745 34.4892 100.383 46.4043 110.338C58.3193 120.294 75.6838 120.181 87.4688 110.072C99.2537 99.9628 102.008 82.8175 93.9825 69.5256L89.4515 61.6702ZM77.5006 31.1283H97.705L84.7626 53.5464L80.3526 45.9035L72.1478 31.6949C73.8912 31.226 75.6976 31.0348 77.5006 31.1283ZM66.7831 109.633C58.2929 109.626 50.4552 105.077 46.2368 97.7092C42.0183 90.3409 42.0638 81.279 46.3559 73.9534C46.3559 73.9534 66.7005 38.718 66.7772 38.5779L74.7209 52.31V52.3203L87.1941 73.9387L87.2015 73.9564C91.4999 81.2798 91.549 90.344 87.3301 97.7135C83.1113 105.083 75.2702 109.63 66.7787 109.631L66.7831 109.633ZM84.4085 85.9518C84.4077 95.6877 76.5149 103.58 66.7792 103.579C57.0435 103.579 49.1516 95.6858 49.1518 85.9499C49.1521 76.214 57.0445 68.3216 66.7802 68.3216C71.4557 68.3216 75.9398 70.1791 79.2458 73.4855C82.5518 76.7918 84.4089 81.2761 84.4085 85.9518Z" fill="#00A19C"/>
</g>
</svg>
