<svg width="403" height="236" viewBox="0 0 403 236" fill="none" xmlns="http://www.w3.org/2000/svg">
<path d="M383.915 223C392.891 207.082 422.383 151.369 383.145 121.33C361.757 104.95 346.267 95.1428 345.446 68.9552C344.677 44.3081 345.446 25.8227 326.212 8.87777C294.104 -19.4151 226.04 28.5955 213.884 32.7547C155.412 52.7805 156.849 22.6391 110.02 48.9294C66.1657 73.5766 76.8856 125.644 33.0828 155.991C3.07747 176.787 0 223 0 223" fill="#EAEEF9"/>
<path d="M211.002 158.499C211.002 158.499 220.105 157.337 227.755 154.82C236.471 151.914 274.238 131.82 270.123 118.262C268.767 113.808 264.893 109.886 260.148 109.063C249.496 107.174 234.534 113.711 234.534 113.711C234.534 113.711 223.204 115.309 216.086 117.391C208.968 119.473 201.173 123.928 201.173 123.928C201.173 123.928 182.579 128.963 187.567 147.799C191.779 163.68 211.002 158.499 211.002 158.499Z" fill="#26AFAB"/>
<g filter="url(#filter0_d_79217_73209)">
<path d="M139.001 222.945L133.82 159.563C133.772 152.882 125.928 123.975 130.673 121.215C138.807 116.518 180.981 118.164 180.981 118.164C180.981 118.164 215.601 118.406 224.414 121.263C231.774 123.636 223.107 152.204 223.107 152.204L217.102 222.945H139.001Z" fill="url(#paint0_linear_79217_73209)"/>
</g>
<path d="M192.699 70.5688L192.311 89.5979L191.537 117.633C191.488 120.393 177.446 135.016 177.446 135.016C177.446 135.016 166.794 118.747 166.842 117.633L167.085 110.322L167.23 91.8252L167.666 70.5688H192.699Z" fill="white"/>
<g filter="url(#filter1_d_79217_73209)">
<path d="M135.127 157.045C135.127 157.045 126.218 155.931 118.761 153.413C110.24 150.557 73.6825 130.801 78.0887 117.486C79.5413 113.08 83.4633 109.254 88.16 108.431C98.6672 106.591 113.242 112.983 113.242 112.983C113.242 112.983 124.33 114.581 131.254 116.614C138.178 118.648 145.731 123.006 145.731 123.006C145.731 123.006 163.84 127.945 158.466 146.489C153.866 162.178 135.127 157.045 135.127 157.045Z" fill="url(#paint1_linear_79217_73209)"/>
</g>
<path d="M178.802 109.838C175.51 113.808 170.813 115.745 166.794 115.164L166.891 111.096L167.278 92.5032C171.394 90.179 176.091 90.1791 179.286 92.8421C183.693 96.6189 183.499 104.221 178.802 109.838Z" fill="#DECCFF"/>
<path d="M195.846 85.6756C195.265 86.7409 194.636 87.8061 193.958 88.8713C192.36 91.3892 190.568 93.907 188.583 96.2796C182.724 103.252 177.156 108.191 170.28 109.159C166.746 109.644 163.356 108.917 160.354 106.545C156.771 103.688 155.27 96.9091 154.931 88.8229C154.157 70.4717 155.754 46.8912 155.754 46.8912C161.177 41.904 174.783 38.9019 188.438 48.6828C201.366 57.8341 203.884 70.7138 195.846 85.6756Z" fill="white"/>
<path d="M180.595 71.5363C180.595 71.5363 177.883 69.9385 171.976 69.0669" stroke="#26AFAB" stroke-miterlimit="10" stroke-linecap="round"/>
<path d="M160.209 68.9209C160.209 68.9209 158.078 68.9209 155.851 71.0514" stroke="#26AFAB" stroke-miterlimit="10" stroke-linecap="round"/>
<path d="M165.971 77.0571C165.971 77.0571 164.47 80.7855 164.567 84.4654C164.663 88.1453 167.859 88 167.859 88" stroke="#26AFAB" stroke-miterlimit="10" stroke-linecap="round"/>
<path d="M176.167 77.4735C176.236 76.2988 175.816 75.3186 175.229 75.284C174.642 75.2494 174.109 76.1736 174.04 77.3483C173.971 78.5229 174.391 79.5031 174.978 79.5377C175.566 79.5723 176.098 78.6481 176.167 77.4735Z" fill="#26AFAB"/>
<path d="M160.166 76.8045C160.235 75.6299 159.815 74.6496 159.227 74.6151C158.64 74.5805 158.108 75.5047 158.039 76.6793C157.97 77.8539 158.39 78.8342 158.977 78.8688C159.564 78.9033 160.096 77.9792 160.166 76.8045Z" fill="#26AFAB"/>
<path d="M177.205 90.373L164.664 93.8593C164.664 93.8593 168.441 99.7665 172.266 97.2971C176.14 94.8277 177.205 90.373 177.205 90.373Z" fill="#26AFAB"/>
<path d="M192.214 85.869C190.713 74.6356 192.069 66.2105 188.195 61.2233C182.433 53.815 175.8 54.4929 171.587 57.4465C167.375 60.4001 166.648 62.6759 159.918 59.6738C156.287 58.0276 155.221 64.2737 155.221 64.2737C155.221 64.2737 147.522 60.9812 144.472 49.1667C143.116 43.9858 145.005 38.0785 151.299 37.3522C157.013 36.6744 157.545 39.628 166.309 39.9185C186.355 40.6448 195.458 46.4552 200.978 55.1708C204.949 61.4654 204.416 69.6968 201.365 78.4124C199.671 83.2544 198.121 84.5133 196.862 89.3069C195.555 94.2941 192.408 95.1173 192.408 95.1173L192.214 85.869Z" fill="#424242"/>
<path d="M120.552 69.9402C120.552 69.9402 125.394 66.8897 129.946 62.8708C131.35 61.6603 133.384 56.6247 133.384 56.6247C133.384 56.6247 136.289 56.5278 137.16 55.511C138.807 53.5258 133.238 43.0187 126.847 46.8438C122.392 49.5069 115.759 61.0793 114.5 62.5803C113.241 64.0813 111.788 67.8581 113.435 69.8917C115.468 72.3612 119.245 70.5212 120.552 69.9402Z" fill="white"/>
<g filter="url(#filter2_d_79217_73209)">
<path d="M78.9602 111.676C75.3287 120.779 79.8318 131.722 92.3241 134.579C105.736 137.678 111.111 124.072 113.242 117.874C116.921 107.173 117.648 100.83 119.778 90.9523C122.683 77.6368 124.088 72.5527 125.685 68.6307C126.218 67.3718 122.926 64.1276 119.778 62.9656C116.631 61.8035 113.58 62.6266 113.58 62.6266C113.58 62.6266 106.414 71.6811 100.798 79.3799C88.5958 96.1332 81.0907 106.253 78.9602 111.676Z" fill="url(#paint2_linear_79217_73209)"/>
</g>
<path d="M228.289 69.8903C228.289 69.8903 223.447 66.7914 218.944 62.7241C217.588 61.4652 215.651 56.3327 215.651 56.3327C215.651 56.3327 212.698 56.2358 211.826 55.1706C210.18 53.137 216.135 42.4362 222.575 46.3582C227.03 49.0697 233.47 60.8357 234.68 62.3368C235.891 63.8378 237.295 67.663 235.552 69.7934C233.421 72.3597 229.596 70.4713 228.289 69.8903Z" fill="white"/>
<g filter="url(#filter3_d_79217_73209)">
<path d="M269.445 112.306C272.883 121.554 267.993 132.691 255.21 135.596C241.459 138.743 236.374 124.895 234.389 118.601C230.951 107.755 230.419 101.266 228.482 91.2433C225.916 77.6857 224.608 72.5532 223.107 68.5344C222.623 67.227 226.061 63.9829 229.305 62.7724C232.549 61.5619 235.6 62.4334 235.6 62.4334C235.6 62.4334 242.621 71.6332 248.092 79.4773C260.1 96.5211 267.412 106.786 269.445 112.306Z" fill="url(#paint3_linear_79217_73209)"/>
</g>
<path d="M196.556 84.3922C198.189 81.3232 197.427 77.7254 194.854 76.3563C192.28 74.9872 188.871 76.3652 187.238 79.4342C185.605 82.5032 186.367 86.101 188.94 87.4701C191.514 88.8392 194.923 87.4611 196.556 84.3922Z" fill="white"/>
<path d="M193.91 80.4927C193.91 80.4927 191.683 79.718 189.939 81.9453" stroke="#26AFAB" stroke-miterlimit="10" stroke-linecap="round"/>
<path d="M192.94 83.4469C192.94 83.4469 193.23 81.4133 191.003 80.9775" stroke="#26AFAB" stroke-miterlimit="10" stroke-linecap="round"/>
<path d="M165.729 119.812C165.729 119.812 161.564 123.54 163.017 126.349C164.857 129.835 176.09 141.601 176.09 141.601C176.09 141.601 195.507 132.74 195.991 128.528C196.378 125.138 192.456 120.538 192.456 120.538" stroke="#DECCFF" stroke-miterlimit="10"/>
<path d="M189.794 153.947H203.254C204.852 153.947 205.821 155.69 204.707 156.514L197.686 161.791C197.057 162.275 196.04 162.179 195.313 161.646L188.825 156.368C187.711 155.448 188.293 153.947 189.794 153.947Z" stroke="#DECCFF" stroke-miterlimit="10"/>
<path d="M367.349 172.598V177.277" stroke="#26AFAB" stroke-miterlimit="10" stroke-linecap="round"/>
<path d="M367.404 182.623V187.302" stroke="#26AFAB" stroke-miterlimit="10" stroke-linecap="round"/>
<path d="M365.344 179.949H360.665" stroke="#26AFAB" stroke-miterlimit="10" stroke-linecap="round"/>
<path d="M374.033 179.949H369.354" stroke="#26AFAB" stroke-miterlimit="10" stroke-linecap="round"/>
<path d="M61.1812 54.52L61.0698 59.1986" stroke="#424242" stroke-miterlimit="10" stroke-linecap="round"/>
<path d="M61.0142 64.5454L60.9028 69.224" stroke="#424242" stroke-miterlimit="10" stroke-linecap="round"/>
<path d="M59.0091 61.8711H54.3306" stroke="#424242" stroke-miterlimit="10" stroke-linecap="round"/>
<path d="M67.6981 61.8711H63.0195" stroke="#424242" stroke-miterlimit="10" stroke-linecap="round"/>
<path d="M54.4311 181.603C59.149 176.881 59.1281 169.21 54.3844 164.471C49.6407 159.731 41.9705 159.717 37.2526 164.439C32.5346 169.161 32.5555 176.831 37.2992 181.57C42.0429 186.31 49.7131 186.324 54.4311 181.603Z" stroke="#26AFAB" stroke-miterlimit="10"/>
<path d="M40.0601 176.102C40.4499 177.383 41.174 178.386 42.2322 179.165C43.2905 179.945 44.5158 180.335 45.8526 180.335C47.1893 180.335 48.4146 179.945 49.4729 179.165C50.5311 178.386 51.2552 177.327 51.6451 176.102" stroke="#26AFAB" stroke-miterlimit="10" stroke-linecap="round"/>
<path d="M42.8219 170.456C43.5393 169.738 43.5389 168.574 42.8208 167.857C42.1027 167.139 40.9389 167.14 40.2215 167.858C39.504 168.576 39.5045 169.74 40.2226 170.457C40.9407 171.175 42.1044 171.174 42.8219 170.456Z" fill="#26AFAB"/>
<path d="M51.5123 170.462C52.2298 169.743 52.2293 168.58 51.5112 167.862C50.7931 167.145 49.6294 167.145 48.9119 167.863C48.1944 168.581 48.1949 169.745 48.913 170.463C49.6311 171.18 50.7948 171.18 51.5123 170.462Z" fill="#26AFAB"/>
<path d="M280.652 222.9C231.318 194.416 228.583 153.626 229.039 117.964C229.039 117.964 265.556 112.552 282.304 97C298.654 112.552 335 117.964 335 117.964C334.544 153.626 330.727 194.473 280.652 222.9Z" fill="#26AFAB"/>
<path d="M280.767 214.81C237.756 190.029 235.363 154.424 235.762 123.376C235.762 123.376 267.55 118.648 282.191 105.089C296.433 118.648 328.107 123.376 328.107 123.376C327.709 154.424 324.404 190.029 280.767 214.81Z" fill="white"/>
<path opacity="0.4" d="M280.823 208.999C242.426 186.839 240.262 155.05 240.603 127.307C240.603 127.307 269.031 123.091 282.076 110.957C294.78 123.091 323.15 127.307 323.15 127.307C322.809 155.05 319.846 186.839 280.823 208.999Z" fill="url(#paint4_linear_79217_73209)"/>
<path d="M294.438 148.67H282.76L282.874 136.935H277.348L277.177 148.67H265.498L265.441 154.196H277.12L277.006 165.931H282.532L282.703 154.196H294.381L294.438 148.67Z" fill="white"/>
<defs>
<filter id="filter0_d_79217_73209" x="121.148" y="114.885" width="114.229" height="121.06" filterUnits="userSpaceOnUse" color-interpolation-filters="sRGB">
<feFlood flood-opacity="0" result="BackgroundImageFix"/>
<feColorMatrix in="SourceAlpha" type="matrix" values="0 0 0 0 0 0 0 0 0 0 0 0 0 0 0 0 0 0 127 0" result="hardAlpha"/>
<feOffset dy="5"/>
<feGaussianBlur stdDeviation="4"/>
<feColorMatrix type="matrix" values="0 0 0 0 0 0 0 0 0 0.631373 0 0 0 0 0.611765 0 0 0 0.22 0"/>
<feBlend mode="normal" in2="BackgroundImageFix" result="effect1_dropShadow_79217_73209"/>
<feBlend mode="normal" in="SourceGraphic" in2="effect1_dropShadow_79217_73209" result="shape"/>
</filter>
<filter id="filter1_d_79217_73209" x="69.7217" y="105.099" width="97.741" height="65.7493" filterUnits="userSpaceOnUse" color-interpolation-filters="sRGB">
<feFlood flood-opacity="0" result="BackgroundImageFix"/>
<feColorMatrix in="SourceAlpha" type="matrix" values="0 0 0 0 0 0 0 0 0 0 0 0 0 0 0 0 0 0 127 0" result="hardAlpha"/>
<feOffset dy="5"/>
<feGaussianBlur stdDeviation="4"/>
<feColorMatrix type="matrix" values="0 0 0 0 0 0 0 0 0 0.631373 0 0 0 0 0.611765 0 0 0 0.22 0"/>
<feBlend mode="normal" in2="BackgroundImageFix" result="effect1_dropShadow_79217_73209"/>
<feBlend mode="normal" in="SourceGraphic" in2="effect1_dropShadow_79217_73209" result="shape"/>
</filter>
<filter id="filter2_d_79217_73209" x="69.7427" y="59.3438" width="63.9998" height="88.6876" filterUnits="userSpaceOnUse" color-interpolation-filters="sRGB">
<feFlood flood-opacity="0" result="BackgroundImageFix"/>
<feColorMatrix in="SourceAlpha" type="matrix" values="0 0 0 0 0 0 0 0 0 0 0 0 0 0 0 0 0 0 127 0" result="hardAlpha"/>
<feOffset dy="5"/>
<feGaussianBlur stdDeviation="4"/>
<feColorMatrix type="matrix" values="0 0 0 0 0 0 0 0 0 0.631373 0 0 0 0 0.611765 0 0 0 0.22 0"/>
<feBlend mode="normal" in2="BackgroundImageFix" result="effect1_dropShadow_79217_73209"/>
<feBlend mode="normal" in="SourceGraphic" in2="effect1_dropShadow_79217_73209" result="shape"/>
</filter>
<filter id="filter3_d_79217_73209" x="215.062" y="59.1299" width="63.4519" height="89.925" filterUnits="userSpaceOnUse" color-interpolation-filters="sRGB">
<feFlood flood-opacity="0" result="BackgroundImageFix"/>
<feColorMatrix in="SourceAlpha" type="matrix" values="0 0 0 0 0 0 0 0 0 0 0 0 0 0 0 0 0 0 127 0" result="hardAlpha"/>
<feOffset dy="5"/>
<feGaussianBlur stdDeviation="4"/>
<feColorMatrix type="matrix" values="0 0 0 0 0 0 0 0 0 0.631373 0 0 0 0 0.611765 0 0 0 0.22 0"/>
<feBlend mode="normal" in2="BackgroundImageFix" result="effect1_dropShadow_79217_73209"/>
<feBlend mode="normal" in="SourceGraphic" in2="effect1_dropShadow_79217_73209" result="shape"/>
</filter>
<linearGradient id="paint0_linear_79217_73209" x1="129.04" y1="170.36" x2="227.202" y2="170.36" gradientUnits="userSpaceOnUse">
<stop stop-color="#80D0CE"/>
<stop offset="1" stop-color="#26AFAB"/>
</linearGradient>
<linearGradient id="paint1_linear_79217_73209" x1="77.6312" y1="132.947" x2="159.317" y2="132.947" gradientUnits="userSpaceOnUse">
<stop stop-color="#80D0CE"/>
<stop offset="1" stop-color="#26AFAB"/>
</linearGradient>
<linearGradient id="paint2_linear_79217_73209" x1="77.6896" y1="98.6492" x2="125.657" y2="98.6492" gradientUnits="userSpaceOnUse">
<stop stop-color="#80D0CE"/>
<stop offset="1" stop-color="#26AFAB"/>
</linearGradient>
<linearGradient id="paint3_linear_79217_73209" x1="223.009" y1="99.0534" x2="270.429" y2="99.0534" gradientUnits="userSpaceOnUse">
<stop stop-color="#80D0CE"/>
<stop offset="1" stop-color="#26AFAB"/>
</linearGradient>
<linearGradient id="paint4_linear_79217_73209" x1="235.027" y1="130.665" x2="324.964" y2="202.662" gradientUnits="userSpaceOnUse">
<stop stop-color="#763F98"/>
<stop offset="1" stop-color="#EFE8F3"/>
</linearGradient>
</defs>
</svg>
