<svg width="160" height="165" viewBox="0 0 160 165" fill="none" xmlns="http://www.w3.org/2000/svg">
<path d="M134.692 79.9804C134.692 93.032 130.308 105.044 123.038 114.746C119 119.944 114.154 124.564 108.615 128.144C99.6154 134.035 88.8846 137.5 77.3461 137.5C45.6154 137.5 20 111.743 20 80.0959C20 48.3331 45.7308 22.6918 77.3461 22.6918C88.8846 22.6918 99.6154 26.1569 108.615 31.9319C114.154 35.5125 119 40.1325 123.038 45.3301C130.423 54.9167 134.692 66.9288 134.692 79.9804Z" fill="#EAEEF9"/>
<path d="M25.1925 43.3666C26.2758 43.3666 27.154 42.4875 27.154 41.403C27.154 40.3186 26.2758 39.4395 25.1925 39.4395C24.1092 39.4395 23.231 40.3186 23.231 41.403C23.231 42.4875 24.1092 43.3666 25.1925 43.3666Z" fill="url(#paint0_linear_79217_73177)"/>
<path opacity="0.4" d="M95.5474 55.9481L93.4842 40.7482C93.3159 39.6113 94.1156 38.601 95.2526 38.4324L117.063 35.4428H117.358C118.368 35.4428 119.253 36.2005 119.379 37.2112L119.547 38.4744H122.031L121.821 36.9166C121.652 35.7377 121.063 34.685 120.094 33.927C119.126 33.2112 117.947 32.8744 116.768 33.0426L94.9156 35.9902C92.4315 36.3271 90.7051 38.6007 91.042 41.0851L93.1052 56.285C93.4001 58.5165 95.3368 60.1586 97.5683 60.1586H97.6526V57.6745C96.642 57.7588 95.7156 57.0008 95.5473 55.9481H95.5474Z" fill="url(#paint1_linear_79217_73177)"/>
<path d="M126.495 40.7484H104.474C101.99 40.7484 99.9683 42.7694 99.9683 45.2538V60.58C99.9683 63.0641 101.989 65.0854 104.474 65.0854H126.495C128.979 65.0854 131 63.0644 131 60.58V45.2538C131 42.7694 128.979 40.7484 126.495 40.7484ZM104.474 43.1905H126.495C127.631 43.1905 128.516 44.1168 128.516 45.2115V58.0956L122.032 50.6852C120.937 49.422 119 49.422 117.905 50.6852L112.348 57.1273L110.327 54.8957C109.316 53.7588 107.548 53.7588 106.537 54.8957L102.453 59.4011L102.453 45.2538C102.411 44.1169 103.337 43.1906 104.474 43.1906L104.474 43.1905Z" fill="#633185"/>
<path opacity="0.4" d="M110.831 48.6219C110.831 49.9708 109.738 51.0639 108.389 51.0639C107.04 51.0639 105.947 49.9708 105.947 48.6219C105.947 47.2731 107.04 46.18 108.389 46.18C109.738 46.18 110.831 47.2731 110.831 48.6219Z" fill="url(#paint2_linear_79217_73177)"/>
<path d="M120.846 137.196C121.866 137.196 122.692 136.369 122.692 135.348C122.692 134.327 121.866 133.5 120.846 133.5C119.827 133.5 119 134.327 119 135.348C119 136.369 119.827 137.196 120.846 137.196Z" fill="url(#paint3_linear_79217_73177)"/>
<path d="M109.769 92.026L97.0769 122.749C96.7307 123.442 96.6153 124.251 96.6153 125.059L96.4999 127.6H46.5384C44.8076 127.6 43.423 126.099 43.5384 124.366L45.1538 107.965C45.5 104.385 42.9615 101.151 39.3846 100.689L30.1538 99.5336L32.4615 84.5184C34.7692 69.5033 41.5769 69.0413 46.0769 66.8467C48.2692 65.8072 50.8076 64.7677 53 63.8437C54.1538 63.3817 55.3076 63.0352 56 62.6887C56.8076 62.3422 57.7307 62.2267 58.6538 62.2267C60.2692 62.3422 63.0384 62.5732 67.1923 63.4972C69.7307 64.0747 72.8461 64.6522 75.8461 65.2297C76.5384 65.3452 77.3461 65.4607 78.0384 65.6917C83.3461 66.7312 88.3076 69.0413 92.4615 72.3908L107.692 84.6339C110.115 86.1354 110.923 89.254 109.769 92.026Z" fill="#26AFAB"/>
<path d="M73.8844 57.2601V64.6522C73.8844 69.6188 69.7306 73.6613 64.5383 73.6613C61.9998 73.6613 59.5767 72.6218 57.9614 71.0048C56.2306 69.3878 55.1921 67.0777 55.1921 64.6522V42.938L73.8844 57.2601Z" fill="white"/>
<path d="M73.8846 57.2601V64.4212C63.1539 63.3817 59.577 52.7556 61.077 54.0261C62.3462 55.2966 69.1539 56.5671 73.8846 57.2601Z" fill="url(#paint4_linear_79217_73177)"/>
<path d="M80.3459 31.5034C80.4613 42.938 81.9613 54.2571 79.3074 56.3361C76.6536 58.4151 70.769 60.3787 64.8843 56.9136C58.9997 53.4486 58.3074 51.2541 58.3074 51.2541L55.0767 48.02L55.5382 34.7374L64.8843 28.0383L80.3459 31.5034Z" fill="white"/>
<path d="M80.3462 31.5033C80.3462 31.5033 81.5001 34.9684 76.5385 34.8529C71.577 34.7374 65.577 33.1203 63.0385 32.6583C60.5001 32.0808 58.8847 34.9684 58.8847 34.9684V39.3574L58.3078 46.172C58.3078 46.172 53.8078 44.093 53.6924 41.4364C53.577 38.7799 53.6924 37.9714 53.6924 37.9714L59.2309 32.8893C59.2309 32.8893 66.3847 30.2328 66.7309 29.8863C67.077 29.6553 74.4616 27.9228 74.4616 27.9228C74.4616 27.9228 79.5385 28.1538 80.0001 28.8468C80.2308 29.1933 80.3462 30.0018 80.4616 30.5793C80.3462 31.1568 80.3462 31.5033 80.3462 31.5033Z" fill="#212121"/>
<path d="M56.1343 48.6949C57.9093 48.5122 59.1844 46.7693 58.9823 44.8022C58.7802 42.835 57.1775 41.3884 55.4024 41.5711C53.6274 41.7538 52.3523 43.4966 52.5544 45.4638C52.7565 47.431 54.3593 48.8776 56.1343 48.6949Z" fill="white"/>
<path d="M80.5767 33.2359C80.4613 33.2359 80.4613 33.2359 80.3459 33.3514C78.1536 30.4638 74.5767 28.8468 67.8844 31.2723H67.769C67.5382 31.3878 67.1921 31.5033 66.8459 31.6189C66.4998 31.7344 66.1536 31.8499 65.8075 32.0809C64.1921 32.7739 61.6536 34.1599 59.3459 35.7769C56.4613 37.7404 53.9229 40.2814 53.8075 42.3605C53.1152 39.5884 52.769 36.8164 52.6536 34.0444C52.5382 28.8468 58.9998 23.4183 65.4613 22.6098C68.9228 22.1478 71.6921 23.1873 74.1152 24.9198C76.1921 26.4213 78.0382 28.6158 79.6536 30.8103L80.5767 33.2359Z" fill="url(#paint5_linear_79217_73177)"/>
<path d="M88.3077 26.8826C87.7308 29.7701 83.2308 32.0802 80.3462 33.2352C75.2693 26.6516 65.2308 31.6182 59.3462 35.7762C59.4616 35.6607 59.577 34.9677 59.6923 34.8522C63.2693 26.0741 89.9231 18.3355 88.3077 26.8826Z" fill="#00A19C"/>
<path d="M76.9998 43.0535C77.7645 43.0535 78.3845 42.4329 78.3845 41.6674C78.3845 40.902 77.7645 40.2814 76.9998 40.2814C76.2351 40.2814 75.6152 40.902 75.6152 41.6674C75.6152 42.4329 76.2351 43.0535 76.9998 43.0535Z" fill="#212121"/>
<path d="M67.1922 43.0535C67.9569 43.0535 68.5768 42.4329 68.5768 41.6674C68.5768 40.902 67.9569 40.2814 67.1922 40.2814C66.4275 40.2814 65.8076 40.902 65.8076 41.6674C65.8076 42.4329 66.4275 43.0535 67.1922 43.0535Z" fill="#212121"/>
<path d="M116.231 77.5874H113.462C113.115 77.5874 113 77.472 113 77.1258C113 76.7797 113.115 76.6643 113.462 76.6643H116.231C116.577 76.6643 116.692 76.7797 116.692 77.1258C116.692 77.3566 116.577 77.5874 116.231 77.5874Z" fill="url(#paint6_linear_79217_73177)"/>
<path d="M140 75.5093V126.792C140 127.485 139.885 128.062 139.538 128.524C139.423 128.64 139.308 128.986 139.077 129.102C138.962 129.217 138.962 129.217 138.846 129.333C138.154 130.026 137.346 130.372 136.308 130.372H120.846L117.846 72.1598H136.654C138.5 72.1598 140 73.5458 140 75.5093Z" fill="url(#paint7_linear_79217_73177)"/>
<g filter="url(#filter0_d_79217_73177)">
<path d="M140 75.5093V126.792C140 127.485 139.885 128.062 139.538 128.524C139.423 128.64 139.308 128.986 139.077 129.102C138.962 129.217 138.962 129.217 138.846 129.333C138.154 130.026 137.346 130.372 136.308 130.372H120.846L117.846 72.1598H136.654C138.5 72.1598 140 73.5458 140 75.5093Z" fill="url(#paint8_linear_79217_73177)"/>
</g>
<g filter="url(#filter1_d_79217_73177)">
<path d="M120.962 75.1628V130.257H70.3077C68.3462 130.257 66.8462 128.755 66.8462 126.792V75.5093C66.8462 73.6613 68.3462 72.1598 70.3077 72.1598H117.846C119.577 72.1598 120.962 73.5458 120.962 75.1628Z" fill="url(#paint9_linear_79217_73177)"/>
</g>
<path d="M117.846 72.1598C119.115 71.9288 120.615 72.7373 121.077 74.0078C121.192 74.3543 121.308 74.7008 121.308 75.0473C121.308 75.3938 121.308 75.7404 121.308 75.9714V77.8194V85.3269L121.192 100.342L121.077 115.357L120.846 130.372L120.731 115.357L120.615 100.342L120.5 85.3269V77.8194V75.9714C120.5 75.2783 120.615 74.7008 120.385 74.2388C120.038 73.1993 119 72.3908 117.846 72.1598Z" fill="#4DBDBA"/>
<path d="M121 115.614V125.789C121 126.491 120.273 127.719 119.545 128.947C118.818 129.649 117.727 130 116.636 130H104.455L95.7273 120.351L98.4545 117.544L91 109.474L100.818 110.175L108.818 106.667L103.909 102.631L104.455 99.9999L121 115.614Z" fill="url(#paint10_linear_79217_73177)"/>
<path d="M91.3621 106.43C91.181 106.782 91 107.311 91 107.663C91 108.721 91.9052 109.602 92.9915 109.602H96.0693V119.295C96.0693 119.647 96.2504 120 96.7935 120H104.216H105.484C105.846 120 106.208 119.824 106.208 119.295V109.602H108.924C109.286 109.602 109.829 109.426 110.191 109.249C111.096 108.544 111.277 107.311 110.553 106.43L102.587 96.7366C102.406 96.5604 102.406 96.3841 102.225 96.3841C101.32 95.6792 100.052 96.0317 99.3282 96.7366L91.3621 106.43Z" fill="url(#paint11_linear_79217_73177)"/>
<path d="M44.9231 110.968L47 90.2935L49.1923 112.47" fill="#112133"/>
<g filter="url(#filter2_d_79217_73177)">
<path d="M91.0769 116.974C91.1922 117.783 90.4999 118.476 89.8076 118.591L88.5384 118.707C88.5384 118.707 84.1538 118.014 83.923 121.132C83.6922 123.673 84.9615 124.597 88.423 128.871C89.2307 129.91 88.5384 131.412 87.2692 131.527C78.6153 132.22 78.2692 132.22 71.4615 125.521C70.5384 124.597 69.2692 124.02 67.9999 124.02L50.3461 123.904L34.6538 123.673C32 122.403 30.3846 119.746 30.6153 116.743L31.5384 99.4181L45.9615 101.266L45.1538 109.236L69.7307 114.202C69.7307 114.202 75.9615 115.473 80.923 115.242C84.6153 115.126 87.7307 115.357 89.8076 115.473C90.3845 115.704 90.9615 116.281 91.0769 116.974Z" fill="white"/>
</g>
<rect x="92" y="123" width="18" height="3" rx="1" fill="url(#paint12_linear_79217_73177)"/>
<defs>
<filter id="filter0_d_79217_73177" x="109.846" y="69.1598" width="38.1538" height="74.2126" filterUnits="userSpaceOnUse" color-interpolation-filters="sRGB">
<feFlood flood-opacity="0" result="BackgroundImageFix"/>
<feColorMatrix in="SourceAlpha" type="matrix" values="0 0 0 0 0 0 0 0 0 0 0 0 0 0 0 0 0 0 127 0" result="hardAlpha"/>
<feOffset dy="5"/>
<feGaussianBlur stdDeviation="4"/>
<feColorMatrix type="matrix" values="0 0 0 0 0 0 0 0 0 0.631373 0 0 0 0 0.611765 0 0 0 0.22 0"/>
<feBlend mode="normal" in2="BackgroundImageFix" result="effect1_dropShadow_79217_73177"/>
<feBlend mode="normal" in="SourceGraphic" in2="effect1_dropShadow_79217_73177" result="shape"/>
</filter>
<filter id="filter1_d_79217_73177" x="58.8462" y="69.1598" width="70.1155" height="74.097" filterUnits="userSpaceOnUse" color-interpolation-filters="sRGB">
<feFlood flood-opacity="0" result="BackgroundImageFix"/>
<feColorMatrix in="SourceAlpha" type="matrix" values="0 0 0 0 0 0 0 0 0 0 0 0 0 0 0 0 0 0 127 0" result="hardAlpha"/>
<feOffset dy="5"/>
<feGaussianBlur stdDeviation="4"/>
<feColorMatrix type="matrix" values="0 0 0 0 0 0 0 0 0 0.631373 0 0 0 0 0.611765 0 0 0 0.22 0"/>
<feBlend mode="normal" in2="BackgroundImageFix" result="effect1_dropShadow_79217_73177"/>
<feBlend mode="normal" in="SourceGraphic" in2="effect1_dropShadow_79217_73177" result="shape"/>
</filter>
<filter id="filter2_d_79217_73177" x="8.59351" y="88.4181" width="104.496" height="76.4056" filterUnits="userSpaceOnUse" color-interpolation-filters="sRGB">
<feFlood flood-opacity="0" result="BackgroundImageFix"/>
<feColorMatrix in="SourceAlpha" type="matrix" values="0 0 0 0 0 0 0 0 0 0 0 0 0 0 0 0 0 0 127 0" result="hardAlpha"/>
<feOffset dy="11"/>
<feGaussianBlur stdDeviation="11"/>
<feColorMatrix type="matrix" values="0 0 0 0 0.397708 0 0 0 0 0.47749 0 0 0 0 0.575 0 0 0 0.18 0"/>
<feBlend mode="normal" in2="BackgroundImageFix" result="effect1_dropShadow_79217_73177"/>
<feBlend mode="normal" in="SourceGraphic" in2="effect1_dropShadow_79217_73177" result="shape"/>
</filter>
<linearGradient id="paint0_linear_79217_73177" x1="23.231" y1="41.4291" x2="27.0449" y2="41.4291" gradientUnits="userSpaceOnUse">
<stop stop-color="#80D0CE"/>
<stop offset="1" stop-color="#26AFAB"/>
</linearGradient>
<linearGradient id="paint1_linear_79217_73177" x1="88.9149" y1="38.4594" x2="114.361" y2="66.0937" gradientUnits="userSpaceOnUse">
<stop stop-color="#763F98"/>
<stop offset="1" stop-color="#EFE8F3"/>
</linearGradient>
<linearGradient id="paint2_linear_79217_73177" x1="105.619" y1="47.1618" x2="110.205" y2="51.5205" gradientUnits="userSpaceOnUse">
<stop stop-color="#763F98"/>
<stop offset="1" stop-color="#EFE8F3"/>
</linearGradient>
<linearGradient id="paint3_linear_79217_73177" x1="119.033" y1="135.309" x2="122.615" y2="135.309" gradientUnits="userSpaceOnUse">
<stop stop-color="#9F79B7"/>
<stop offset="1" stop-color="#763F98"/>
</linearGradient>
<linearGradient id="paint4_linear_79217_73177" x1="65.9965" y1="62.0741" x2="67.7229" y2="58.574" gradientUnits="userSpaceOnUse">
<stop stop-color="#E3E7F5"/>
<stop offset="0.9913" stop-color="#CED5E6"/>
</linearGradient>
<linearGradient id="paint5_linear_79217_73177" x1="52.6518" y1="32.4451" x2="80.5286" y2="32.4451" gradientUnits="userSpaceOnUse">
<stop stop-color="#4DBDBA"/>
<stop offset="1" stop-color="#4DBDBA"/>
<stop offset="1" stop-color="#26AFAB"/>
</linearGradient>
<linearGradient id="paint6_linear_79217_73177" x1="113.054" y1="77.0535" x2="116.72" y2="77.0535" gradientUnits="userSpaceOnUse">
<stop stop-color="#4DBDBA"/>
<stop offset="1" stop-color="#00A19C"/>
</linearGradient>
<linearGradient id="paint7_linear_79217_73177" x1="103.139" y1="102.194" x2="129.535" y2="101.125" gradientUnits="userSpaceOnUse">
<stop stop-color="#4DBDBA"/>
<stop offset="1" stop-color="#80D0CE"/>
</linearGradient>
<linearGradient id="paint8_linear_79217_73177" x1="152.249" y1="121.546" x2="132.272" y2="103.808" gradientUnits="userSpaceOnUse">
<stop stop-color="#80D0CE"/>
<stop offset="1" stop-color="#26AFAB"/>
</linearGradient>
<linearGradient id="paint9_linear_79217_73177" x1="66.7863" y1="101.178" x2="120.865" y2="101.178" gradientUnits="userSpaceOnUse">
<stop stop-color="#80D0CE"/>
<stop offset="1" stop-color="#26AFAB"/>
</linearGradient>
<linearGradient id="paint10_linear_79217_73177" x1="97.6998" y1="108.337" x2="117.598" y2="129.012" gradientUnits="userSpaceOnUse">
<stop stop-color="#008F8A"/>
<stop offset="1" stop-color="#4DBDBA"/>
</linearGradient>
<linearGradient id="paint11_linear_79217_73177" x1="107.556" y1="116.469" x2="96.2094" y2="104.783" gradientUnits="userSpaceOnUse">
<stop offset="0.0113208" stop-color="#B3E3E1"/>
<stop offset="1" stop-color="white"/>
</linearGradient>
<linearGradient id="paint12_linear_79217_73177" x1="106.9" y1="125.559" x2="106.524" y2="122.772" gradientUnits="userSpaceOnUse">
<stop offset="0.0113208" stop-color="#B3E3E1"/>
<stop offset="1" stop-color="white"/>
</linearGradient>
</defs>
</svg>
